<svg xmlns="http://www.w3.org/2000/svg" viewBox="0 0 898 290.78">
  <defs>
    <style>
      .cls-1 {
        fill: #9398c5;
      }

      .cls-2, .cls-3 {
        fill: #3a4185;
      }

      .cls-3, .cls-4 {
        fill-rule: evenodd;
      }

      .cls-4 {
        fill: #fa3c49;
      }
    </style>
  </defs>
  <title>beautyhub_logo+e</title>
  <g id="logo_1" data-name="logo 1">
    <g>
      <path class="cls-1" d="M286.68,677.64l3.45,3.5a14.66,14.66,0,0,1-10.41,4.3c-8.14,0-14.8-5.9-14.8-15.18,0-8.89,6.16-15.18,14.8-15.18a14.49,14.49,0,0,1,10.41,4.35l-3.45,3.45a9.85,9.85,0,0,0-7-2.86c-6.07,0-9.78,4.3-9.78,10.24,0,6.32,4.34,10.25,9.78,10.25A9.86,9.86,0,0,0,286.68,677.64Z" transform="translate(-55.9 -394.65)"/>
      <path class="cls-1" d="M315.28,680.09V685H299.43V655.5h4.93v24.59Z" transform="translate(-55.9 -394.65)"/>
      <path class="cls-1" d="M324.9,655.5h4.94V685H324.9Z" transform="translate(-55.9 -394.65)"/>
      <path class="cls-1" d="M361.55,677.64l3.46,3.5a14.7,14.7,0,0,1-10.42,4.3c-8.13,0-14.8-5.9-14.8-15.18,0-8.89,6.16-15.18,14.8-15.18A14.53,14.53,0,0,1,365,659.43l-3.46,3.45a9.85,9.85,0,0,0-7-2.86c-6.07,0-9.78,4.3-9.78,10.24,0,6.32,4.34,10.25,9.78,10.25A9.86,9.86,0,0,0,361.55,677.64Z" transform="translate(-55.9 -394.65)"/>
      <path class="cls-1" d="M385.3,670.51,397.57,685h-6.45L382,673.8l-2.79,3.12V685H374.3V655.5h4.93v14.89l12.1-14.89h6.16Z" transform="translate(-55.9 -394.65)"/>
      <path class="cls-1" d="M439.34,660h-6.2v25h-4.89V660h-6.2V655.5h17.29Z" transform="translate(-55.9 -394.65)"/>
      <path class="cls-1" d="M469.88,655.5V685h-4.94V672.71H452.67V685h-4.93V655.5h4.93v12.23h12.27V655.5Z" transform="translate(-55.9 -394.65)"/>
      <path class="cls-1" d="M485.75,660.44v7.37H498v4.9H485.75v7.38H500.5V685H480.81V655.5H500.5v4.94Z" transform="translate(-55.9 -394.65)"/>
      <path class="cls-1" d="M548.67,676.54c0,8.1-8.26,8.48-10.24,8.48H528.6V655.55h9.83s9.82-.26,9.82,8.26a6.27,6.27,0,0,1-4.93,6.49A6.27,6.27,0,0,1,548.67,676.54Zm-15.18-8.73h4.94s4.89,0,4.89-3.66c0-4-4.89-3.71-4.89-3.71h-4.94Zm10.25,8.61c0-4-5.31-3.67-5.31-3.67h-4.94v7.38h4.94C540.49,680.13,543.74,679.62,543.74,676.42Z" transform="translate(-55.9 -394.65)"/>
      <path class="cls-1" d="M563.19,660.44v7.37h12.27v4.9H563.19v7.38H578V685H558.26V655.5H578v4.94Z" transform="translate(-55.9 -394.65)"/>
      <path class="cls-1" d="M600.9,681.6H590.53L589.26,685H584l11.76-30.36L607.52,685h-5.31Zm-8.77-4.26h7.17l-3.59-10.24Z" transform="translate(-55.9 -394.65)"/>
      <path class="cls-1" d="M615.08,675.57V655.5H620v20.07c.26,3.42,3,4.94,6.11,4.94s6.16-1.65,6.16-4.94V655.5h4.93v20.07c0,6.28-4.8,9.87-11.09,9.87C620.06,685.44,615.08,681.64,615.08,675.57Z" transform="translate(-55.9 -394.65)"/>
      <path class="cls-1" d="M662.91,660h-6.2v25h-4.89V660h-6.2V655.5h17.29Z" transform="translate(-55.9 -394.65)"/>
      <path class="cls-1" d="M695,655.5l-11.09,15.56v14H679v-14L667.9,655.5h6l7.55,10.55L689,655.5Z" transform="translate(-55.9 -394.65)"/>
    </g>
    <path class="cls-2" d="M660.21,486.69a1.16,1.16,0,0,0-1.28,1v34.66H625.34V487.7a1.16,1.16,0,0,0-1.28-1H609.57a1.16,1.16,0,0,0-1.28,1v86.85a1.16,1.16,0,0,0,1.28,1h14.49a1.16,1.16,0,0,0,1.28-1V538.49h33.59v36.06a1.16,1.16,0,0,0,1.28,1h14.62a1.12,1.12,0,0,0,1.15-1V487.7a1.12,1.12,0,0,0-1.15-1Z" transform="translate(-55.9 -394.65)"/>
    <path class="cls-2" d="M862.83,511.83c0-25.91-30.26-25.14-30.26-25.14h-29a1.12,1.12,0,0,0-1.15,1v86.85a1.12,1.12,0,0,0,1.15,1h29c6.16,0,31.41-1.14,31.41-25.77,0,0,.51-14.6-13.46-19.43C857.18,527.69,862.83,522,862.83,511.83Zm-43.46-8.89h13.2s13.21-.77,13.21,9.77c0,9.65-10.77,10.54-13.21,10.54h-13.2Zm13.2,56.37h-13.2V538.74h13.2c2.82,0,14.49,0,14.49,10.54C847.06,557.66,838.21,559.31,832.57,559.31Z" transform="translate(-55.9 -394.65)"/>
    <path class="cls-3" d="M755.91,499.39V487.76a1.17,1.17,0,0,1,1.28-1h14.62a1.13,1.13,0,0,1,1.15,1v11.63Zm-50.64,0V487.76a1.17,1.17,0,0,1,1.28-1H721a1.18,1.18,0,0,1,1.28,1v11.63Z" transform="translate(-55.9 -394.65)"/>
    <path class="cls-4" d="M722.32,503.73v43.75c1,8.89,8.46,13.59,16.79,13.59s16.8-4.44,16.8-13.46V503.73H773v43.88c0,18.92-14.62,29.84-33.85,29.84-18.59,0-33.84-11.43-33.84-29.84V503.73Z" transform="translate(-55.9 -394.65)"/>
    <path class="cls-2" d="M162.4,511.28c0-25.9-30.25-25.14-30.25-25.14h-29a1.12,1.12,0,0,0-1.15,1V574a1.12,1.12,0,0,0,1.15,1h29c6.15,0,31.41-1.15,31.41-25.78,0,0,.51-14.6-13.46-19.42C156.76,527.15,162.4,521.44,162.4,511.28Zm-43.46-8.89h13.21s13.2-.76,13.2,9.78c0,9.65-10.77,10.54-13.2,10.54H118.94Zm13.21,56.38H118.94V538.2h13.21c2.82,0,14.49,0,14.49,10.54C146.64,557.12,137.79,558.77,132.15,558.77Z" transform="translate(-55.9 -394.65)"/>
    <path class="cls-2" d="M248,502.27a1.18,1.18,0,0,0,1.29-1v-14.1a1.18,1.18,0,0,0-1.29-1H189.92a1.12,1.12,0,0,0-1.15,1V574a1.12,1.12,0,0,0,1.15,1H248a1.18,1.18,0,0,0,1.29-1V560a1.18,1.18,0,0,0-1.29-1h-42.3V538.71h35a1,1,0,0,0,1.15-1V523.85a1,1,0,0,0-1.15-1h-35V502.27Z" transform="translate(-55.9 -394.65)"/>
    <path class="cls-2" d="M320.75,574.38a1.16,1.16,0,0,0,1,.64h15.9c.89,0,1.41-.64,1-1.4l-35-89.39a1.32,1.32,0,0,0-2.3,0l-35,89.39c-.38.76.13,1.4,1.16,1.4h15.77a1.21,1.21,0,0,0,1.15-.64l3.46-9.39H317Zm-18.2-51,9,26.67H293.44Z" transform="translate(-55.9 -394.65)"/>
    <path class="cls-2" d="M387.42,576.29c19.23,0,33.85-10.92,33.85-29.84V487.92a1.13,1.13,0,0,0-1.16-1H405.5a1.17,1.17,0,0,0-1.28,1v58.53c0,9-8.34,13.46-16.8,13.46s-15.77-4.7-16.79-13.58V487.92a1.18,1.18,0,0,0-1.29-1H354.86a1.18,1.18,0,0,0-1.29,1v58.53C353.57,564.86,368.83,576.29,387.42,576.29Z" transform="translate(-55.9 -394.65)"/>
    <path class="cls-2" d="M494.68,487.92a1.17,1.17,0,0,0-1.28-1H442.5a1.17,1.17,0,0,0-1.28,1v13.2c0,.51.51.89,1.28.89h17.05v72a1.05,1.05,0,0,0,1.16,1h14.48a1.05,1.05,0,0,0,1.16-1V502h17c.77,0,1.28-.38,1.28-.89Z" transform="translate(-55.9 -394.65)"/>
    <path class="cls-2" d="M569.53,486.14c-.13,0-.77.13-.9.38l-21.15,30.09-21.29-30.09c-.12-.25-.77-.38-.89-.38H507.48c-1.16,0-1.67.89-1,1.65,10.77,15,21.8,30.73,32.44,45.71V574a1.17,1.17,0,0,0,1.28,1h14.49a1.18,1.18,0,0,0,1.28-1V533.5l32.43-45.71c.64-.76.13-1.65-1-1.65Z" transform="translate(-55.9 -394.65)"/>
    <path class="cls-2" d="M908.12,621.62H55.9V440.36H908.12ZM64.34,613.18H899.69V448.8H64.34Z" transform="translate(-55.9 -394.65)"/>
  </g>
  <g id="Слой_5" data-name="Слой 5">
    <g>
      <path class="cls-2" d="M931,405.76a11.79,11.79,0,0,0-11.59,9.7h23.18A11.78,11.78,0,0,0,931,405.76Z" transform="translate(-55.9 -394.65)"/>
      <path class="cls-2" d="M931,394.65a22.88,22.88,0,1,0,22.87,22.88A22.88,22.88,0,0,0,931,394.65Zm0,38.79a15.79,15.79,0,0,1-12.52-6.1l3.25-2.55a11.78,11.78,0,0,0,20.86-5.19h-27.5v-2.07A15.91,15.91,0,1,1,931,433.44Z" transform="translate(-55.9 -394.65)"/>
    </g>
  </g>
</svg>
