<svg xmlns="http://www.w3.org/2000/svg" viewBox="0 0 77.45 73.78">
  <title>Календарь</title>
  <g id="bf244bb3-9c26-41f0-ab8a-291c437ed58e" data-name="Layer 2">
    <g id="f6465925-e070-4ff4-a8ab-2d84cec84787" data-name="Layer 1">
      <g>
        <path d="M75.95,8.34H60.1V1.5a1.5,1.5,0,0,0-3,0V8.34H18.64V1.5a1.5,1.5,0,0,0-3,0V8.34H1.5A1.5,1.5,0,0,0,0,9.84V72.28a1.5,1.5,0,0,0,1.5,1.5H75.95a1.5,1.5,0,0,0,1.5-1.5V9.84A1.5,1.5,0,0,0,75.95,8.34Zm-1.5,62.44H3V11.34H15.64v4.54a1.5,1.5,0,0,0,3,0V11.34H57.1v4.54a1.5,1.5,0,1,0,3,0V11.34H74.45Z" style="fill: #3a4185"/>
        <path d="M59.62,51.24l-5.06-5.06a1.5,1.5,0,1,0-2.12,2.12l5.06,5.06-5.06,5.06a1.5,1.5,0,0,0,2.12,2.12l5.06-5.06,5.06,5.06a1.5,1.5,0,0,0,2.12-2.12l-5.06-5.06,5.06-5.06a1.5,1.5,0,0,0-2.12-2.12Z" style="fill: #3a4185"/>
        <path d="M22.67,25.47H13.42a1.5,1.5,0,0,0-1.5,1.5v9.25a1.5,1.5,0,0,0,1.5,1.5h9.25a1.5,1.5,0,0,0,1.5-1.5V27A1.5,1.5,0,0,0,22.67,25.47Zm-1.5,9.25H14.92V28.47h6.25Z" style="fill: #3a4185"/>
        <path d="M43.74,25.47H34.5A1.5,1.5,0,0,0,33,27v9.25a1.5,1.5,0,0,0,1.5,1.5h9.25a1.5,1.5,0,0,0,1.5-1.5V27A1.5,1.5,0,0,0,43.74,25.47Zm-1.5,9.25H36V28.47h6.25Z" style="fill: #3a4185"/>
        <path d="M22.67,46.74H13.42a1.5,1.5,0,0,0-1.5,1.5v9.25a1.5,1.5,0,0,0,1.5,1.5h9.25a1.5,1.5,0,0,0,1.5-1.5V48.24A1.5,1.5,0,0,0,22.67,46.74ZM21.17,56H14.92V49.74h6.25Z" style="fill: #3a4185"/>
        <path d="M43.74,46.74H34.5a1.5,1.5,0,0,0-1.5,1.5v9.25A1.5,1.5,0,0,0,34.5,59h9.25a1.5,1.5,0,0,0,1.5-1.5V48.24A1.5,1.5,0,0,0,43.74,46.74ZM42.24,56H36V49.74h6.25Z" style="fill: #3a4185"/>
        <path d="M54.61,25.47a1.5,1.5,0,0,0-1.5,1.5v9.25a1.5,1.5,0,0,0,1.5,1.5h9.25a1.5,1.5,0,0,0,1.5-1.5V27a1.5,1.5,0,0,0-1.5-1.5Zm7.75,9.25H56.11V28.47h6.25Z" style="fill: #3a4185"/>
      </g>
    </g>
  </g>
</svg>
