<svg xmlns="http://www.w3.org/2000/svg" viewBox="0 0 15.57 16.57">
  <title>Корзина</title>
  <g id="5c1850b9-77d5-4a4f-8555-defdfe115bf0" data-name="Layer 2">
    <g id="6221c88e-1ced-466d-a0d4-dda22a3a2bdc" data-name="Layer 1">
      <g>
        <path d="M2.75,16.57a1.66,1.66,0,1,1,1.66-1.66A1.66,1.66,0,0,1,2.75,16.57Zm0-2.21a.55.55,0,1,0,.55.55A.55.55,0,0,0,2.75,14.36Z" style="fill: #3a4185"/>
        <path d="M8.83,16.57a1.66,1.66,0,1,1,1.66-1.66A1.66,1.66,0,0,1,8.83,16.57Zm0-2.21a.55.55,0,1,0,.55.55A.55.55,0,0,0,8.83,14.36Z" style="fill: #3a4185"/>
        <g>
          <rect x="5.62" y="2.52" width="1.11" height="5.36" style="fill: #3a4185"/>
          <polygon points="6.17 9.39 3.63 6.84 4.41 6.06 6.17 7.82 7.94 6.06 8.72 6.84 6.17 9.39" style="fill: #3a4185"/>
        </g>
        <path d="M15.36,0,12.81.51a.91.91,0,0,0-.7.69l-.64,3.21H9.86V5.52h1.39L10,11.6H1.6L1.13,5.52H2.44V4.41H.76A.76.76,0,0,0,0,5.23L.52,12a.8.8,0,0,0,.79.73h9a.83.83,0,0,0,.81-.66l2.1-10.48,2.4-.48Z" style="fill: #3a4185"/>
      </g>
    </g>
  </g>
</svg>
