<svg xmlns="http://www.w3.org/2000/svg" viewBox="0 0 6.91 3.99">
  <title>Кнопка вып. не актив</title>
  <g id="3e647f60-609c-4128-acf5-0fb2377e3058" data-name="Layer 2">
    <g id="fb6b1c08-6978-4b04-ab07-a8caf6896cbd" data-name="Layer 1">
      <g>
        <polygon points="0.37 0.56 0.7 0.37 3.4 3.11 6.22 0.5 6.53 0.7 3.38 3.62 0.37 0.56" style="fill: #505050"/>
        <path d="M.56.88.89.7.43.64l2.7,2.74a.38.38,0,0,0,.53,0L6.48.77,6,.83l.32.2L6.27.44,3.12,3.35h.53L.64.3C.3,0-.23.48.11.83l3,3.06a.38.38,0,0,0,.53,0L6.8,1A.38.38,0,0,0,6.72.38L6.41.18A.38.38,0,0,0,6,.24L3.13,2.85h.53L1,.11A.38.38,0,0,0,.51,0L.18.24A.38.38,0,0,0,.56.88Z" style="fill: #505050"/>
      </g>
    </g>
  </g>
</svg>
