<svg xmlns="http://www.w3.org/2000/svg" viewBox="0 0 83.46 81.1">
  <title>Подарок</title>
  <g id="cbd3027a-cad4-4e77-982d-98285d02fa12" data-name="Layer 2">
    <g id="a2f69043-d9e4-4d0d-a458-a172c5715776" data-name="Layer 1">
      <path d="M81,12.26H64.49c2.13-3.23,2.46-6.66.66-9a6,6,0,0,0-4.1-2.2c-2.91-.37-6.44.8-9.43,3.12a15.84,15.84,0,0,0-4,4.41,15.86,15.86,0,0,0-4-4.4c-5-3.87-10.94-4.27-13.55-.92-1.8,2.33-1.47,5.76.66,9H14.35a1.5,1.5,0,0,0-1.5,1.5V29.54a1.5,1.5,0,0,0,1.5,1.5h3.46V70.45a1.5,1.5,0,0,0,1.5,1.5H76a1.5,1.5,0,0,0,1.5-1.5V31H81a1.5,1.5,0,0,0,1.5-1.5V13.76A1.5,1.5,0,0,0,81,12.26ZM53.45,6.56C55.8,4.74,58.58,3.78,60.67,4a3,3,0,0,1,2.1,1.06c1.22,1.58.29,4.59-2.12,7.16H49.34A11.23,11.23,0,0,1,53.45,6.56ZM32.53,5.1C34,3.18,38.39,3.87,41.87,6.56A11.21,11.21,0,0,1,46,12.26H34.66C32.24,9.69,31.32,6.68,32.53,5.1ZM15.85,15.26H46.16V28H15.85Zm5,15.78H46.16V69H20.81ZM74.51,69H49.16V31H74.51Zm5-40.91H49.16V15.26h30.3Z" style="fill: #fff;stroke: #fff;stroke-miterlimit: 10;stroke-width: 2px"/>
      <circle cx="16.97" cy="64.13" r="16.97" style="fill: #3a4185"/>
      <path d="M21.94,59.88a.94.94,0,0,0,1.87,0c0-2.57-2.57-4.69-5.9-5V50.79a.94.94,0,0,0-1.87,0v4.06c-3.33.34-5.9,2.46-5.9,5s2.57,4.69,5.9,5v6.82c-2.29-.3-4-1.69-4-3.35a.94.94,0,0,0-1.87,0c0,2.57,2.57,4.69,5.9,5v4.06a.94.94,0,0,0,1.87,0V73.41c3.33-.34,5.9-2.46,5.9-5s-2.57-4.69-5.9-5V56.53C20.2,56.83,21.94,58.22,21.94,59.88Zm-9.94,0c0-1.66,1.74-3,4-3.35v6.7C13.74,62.93,12,61.54,12,59.88Zm9.94,8.5c0,1.66-1.74,3.05-4,3.35V65C20.2,65.33,21.94,66.72,21.94,68.38Z" style="fill: #fff;stroke: #fff;stroke-miterlimit: 10;stroke-width: 3px"/>
    </g>
  </g>
</svg>
