<svg xmlns="http://www.w3.org/2000/svg" viewBox="0 0 48 48">
  <title>Инст</title>
  <g id="10aa205a-6892-48ed-be14-07791807fe71" data-name="Layer 2">
    <g id="35c1fe9e-2353-4959-abe9-39f00d5f9da7" data-name="Layer 1">
      <g>
        <circle cx="24" cy="24" r="24" style="fill: #517fa4"/>
        <path d="M33.2,9H14.8A5.8,5.8,0,0,0,9,14.8V33.2A5.8,5.8,0,0,0,14.8,39H33.2A5.8,5.8,0,0,0,39,33.2V14.8A5.8,5.8,0,0,0,33.2,9Zm1.66,3.46h.66v5.08l-5.07,0,0-5.08ZM19.72,20.92a5.27,5.27,0,1,1-1,3.08A5.28,5.28,0,0,1,19.72,20.92ZM36.08,33.2a2.88,2.88,0,0,1-2.88,2.88H14.8a2.88,2.88,0,0,1-2.87-2.87V20.92H16.4a8.2,8.2,0,1,0,15.2,0h4.48Z" style="fill: #fff"/>
      </g>
    </g>
  </g>
</svg>
