<svg xmlns="http://www.w3.org/2000/svg" viewBox="0 0 12.23 15.5">
  <title>ПДФ</title>
  <g id="f087669e-ae65-4e92-bae0-e0ea42250fd0" data-name="Layer 2">
    <g id="49de20d8-a6d9-4924-8655-932a68756557" data-name="Layer 1">
      <g>
        <path d="M3.4,10.16H2.74a.29.29,0,0,0-.28.29v2.69a.29.29,0,0,0,.58,0V12.08h.42a.9.9,0,0,0,.92-.92A.93.93,0,0,0,3.4,10.16Zm.06,1.34H3v-.77h.33c.29,0,.44.09.44.42A.32.32,0,0,1,3.46,11.5Z" style="fill: #3a4185"/>
        <path d="M2.75,13.55a.41.41,0,0,1-.41-.41V10.45A.42.42,0,0,1,2.74,10h.66a1.06,1.06,0,0,1,1.1,1.13,1,1,0,0,1-1,1h-.3v.93A.41.41,0,0,1,2.75,13.55Zm.4-3.27h-.4a.16.16,0,0,0-.16.16v2.69a.16.16,0,1,0,.33,0V12h.55a.77.77,0,0,0,.8-.8.81.81,0,0,0-.87-.87H3.15Zm.31,1.35H2.91v-1h.46c.29,0,.56.09.56.55a.44.44,0,0,1-.47.47Zm-.3-.25h.3c.2,0,.22-.12.22-.22s-.07-.28-.32-.3h-.2Z" style="fill: #3a4185"/>
      </g>
      <g>
        <path d="M9.58,10.15H8.42a.29.29,0,0,0-.29.29v2.69a.29.29,0,0,0,.58,0V12.08h.77a.29.29,0,1,0,0-.58H8.71v-.77h.87a.29.29,0,0,0,0-.58Z" style="fill: #3a4185"/>
        <path d="M8.42,13.55A.41.41,0,0,1,8,13.14V10.44A.41.41,0,0,1,8.42,10H9.58a.41.41,0,1,1,0,.83H8.84v.52h.64a.41.41,0,0,1,0,.83H8.84v.93A.41.41,0,0,1,8.42,13.55Zm0-3.27a.16.16,0,0,0-.16.16v2.69a.16.16,0,1,0,.33,0V12h.89a.16.16,0,0,0,0-.33H8.59v-1h1a.16.16,0,1,0,0-.33Z" style="fill: #3a4185"/>
      </g>
      <g>
        <path d="M5.44,10.15a.29.29,0,0,0-.29.29v2.69a.29.29,0,0,0,.26.29h.18A2.18,2.18,0,0,0,7,13a1.42,1.42,0,0,0,.45-1.1C7.46,10.45,6.36,10.15,5.44,10.15Zm1.18,2.38a1.49,1.49,0,0,1-.9.31v-2.1c.61,0,1.15.26,1.15,1.13A.85.85,0,0,1,6.63,12.53Z" style="fill: #3a4185"/>
        <path d="M5.59,13.55H5.4A.41.41,0,0,1,5,13.13V10.44A.41.41,0,0,1,5.44,10c1.38,0,2.14.65,2.14,1.84a1.53,1.53,0,0,1-.49,1.19A2.28,2.28,0,0,1,5.59,13.55Zm-.15-3.27a.16.16,0,0,0-.16.16v2.69a.16.16,0,0,0,.15.16h.16a2.08,2.08,0,0,0,1.34-.43,1.3,1.3,0,0,0,.41-1C7.34,10.81,6.7,10.28,5.44,10.28ZM5.61,13V10.61h.13A1.18,1.18,0,0,1,7,11.87a1,1,0,0,1-.3.76,1.6,1.6,0,0,1-1,.34Zm.25-2.1v1.83a1.26,1.26,0,0,0,.69-.27h0a.74.74,0,0,0,.22-.58A.88.88,0,0,0,5.86,10.88Z" style="fill: #3a4185"/>
      </g>
      <g>
        <path d="M11.9,3.89,8.39.34A.29.29,0,0,0,8.18.25H.54A.29.29,0,0,0,.25.54V15a.29.29,0,0,0,.29.29H11.69A.29.29,0,0,0,12,15V4.09A.29.29,0,0,0,11.9,3.89ZM8.52,1.29,11,3.81H8.52ZM.83,14.67V.83H7.94V4.1a.29.29,0,0,0,.29.29H11.4V14.67Z" style="fill: #3a4185"/>
        <path d="M11.69,15.5H.54A.54.54,0,0,1,0,15V.54A.54.54,0,0,1,.54,0H8.18a.53.53,0,0,1,.38.16l3.51,3.55a.53.53,0,0,1,.16.38V15A.54.54,0,0,1,11.69,15.5ZM.54.5.5,15l11.19,0,0-10.91v0L8.21.51ZM11.65,14.92H.58V.58H8.19V4.1l3.46,0Zm-10.58-.5H11.15V4.64H8.23a.54.54,0,0,1-.54-.54v-3H1.08ZM11.61,4.06H8.27V.68Zm-2.84-.5h1.64L8.77,1.9Z" style="fill: #3a4185"/>
      </g>
    </g>
  </g>
</svg>
