<svg xmlns="http://www.w3.org/2000/svg" viewBox="0 0 101.46 102.6">
  <title>Скидка</title>
  <g id="1bdc7df9-acf0-4dd4-89c8-830270047c09" data-name="Layer 2">
    <g id="8567ff58-684e-4c3d-b108-a849e9e52e5f" data-name="Layer 1">
      <g>
        <path d="M69.06,34.7l-30.2,24a1.46,1.46,0,0,0-.2,2.1,1.43,1.43,0,0,0,1.2.6,1.4,1.4,0,0,0,.9-.3L71,37.1a1.53,1.53,0,0,0-1.9-2.4Z" style="fill: #fff;stroke: #fff;stroke-miterlimit: 10;stroke-width: 2px"/>
        <path d="M47,45.4a4.87,4.87,0,0,0,1.2-.1,7.54,7.54,0,0,0,6.3-8.7,7.71,7.71,0,0,0-3-5,7.45,7.45,0,0,0-5.6-1.4,7.71,7.71,0,0,0-5,3,7.45,7.45,0,0,0-1.4,5.6A7.69,7.69,0,0,0,47,45.4Zm-.7-12.1c.2,0,.5-.1.7-.1a4.58,4.58,0,1,1-4.5,5.3A4.61,4.61,0,0,1,46.26,33.3Z" style="fill: #fff;stroke: #fff;stroke-miterlimit: 10;stroke-width: 2px"/>
        <path d="M63,50.4a7.6,7.6,0,1,0,7.6,7.6A7.73,7.73,0,0,0,63,50.4Zm0,12.1a4.6,4.6,0,1,1,4.6-4.6A4.65,4.65,0,0,1,63,62.5Z" style="fill: #fff;stroke: #fff;stroke-miterlimit: 10;stroke-width: 2px"/>
        <path d="M100.36,46.9c0-.1.1-.3.1-.4,0-4.3-4.5-6.5-8.4-8.4-2.8-1.4-5.8-2.9-6.6-4.7s.3-5,1.4-7.9c1.5-4.1,3-8.3.2-11.1s-6.8-1.8-10.8-.9c-2.8.6-5.7,1.3-7.6.5s-3.5-3.3-5-5.7c-2.2-3.4-4.6-7.3-8.8-7.3s-6.6,3.9-8.7,7.4c-1.5,2.5-3,5-4.9,5.8s-4.9.1-7.7-.6c-4-1-8.1-2-10.8.7s-1.4,7-.1,11.1c1,3,1.9,6,1.1,8s-3.6,3.3-6.3,4.7c-3.8,2-8.1,4.2-8.1,8.4a.6.6,0,0,0,.1.4c0,.1-.1.3-.1.4,0,4.2,4.3,6.5,8.1,8.4,2.7,1.4,5.5,2.8,6.3,4.7s-.2,5-1.1,8c-1.3,4.1-2.7,8.3.1,11.1s6.9,1.7,10.8.7c2.8-.7,5.8-1.4,7.7-.6s3.4,3.3,4.9,5.8c2.1,3.5,4.5,7.4,8.7,7.4s6.7-3.9,8.8-7.3c1.5-2.4,3.1-4.9,5-5.7s4.8-.2,7.6.5c3.9.9,8,1.9,10.8-.9s1.3-7-.2-11.1c-1.1-3-2.2-6-1.4-7.9s3.7-3.3,6.6-4.7c3.9-2,8.4-4.2,8.4-8.4C100.46,47.1,100.36,47,100.36,46.9ZM90.66,53c-3.3,1.7-6.8,3.4-8,6.3s.1,6.6,1.3,10.1c1.2,3.3,2.4,6.5.9,7.9-1.6,1.6-4.7.9-8,.1s-6.6-1.5-9.5-.3-4.6,4-6.3,6.8c-1.9,3-3.7,5.9-6.3,5.9s-4.3-2.9-6.2-6c-1.7-2.9-3.5-5.8-6.3-7s-6.3-.4-9.6.5-6.4,1.6-8,.1-.5-4.7.6-8c1.1-3.5,2.3-7.1,1-10s-4.5-4.6-7.7-6.2-6.4-3.3-6.4-5.8a.6.6,0,0,0-.1-.4c0-.1.1-.3.1-.4,0-2.4,3.1-4,6.4-5.8,3.2-1.6,6.5-3.3,7.7-6.2s.1-6.6-1-10-2.1-6.6-.6-8c1.6-1.6,4.7-.8,8,.1s6.7,1.7,9.6.5,4.6-4.1,6.3-7c1.9-3.1,3.6-6,6.2-6s4.4,2.9,6.3,5.9c1.8,2.8,3.6,5.6,6.3,6.8,2.9,1.2,6.2.4,9.5-.3s6.4-1.5,8,.1c1.5,1.4.3,4.6-.9,7.9-1.3,3.5-2.6,7.1-1.3,10.1s4.7,4.6,8,6.3c3.5,1.7,6.7,3.4,6.7,5.8a.6.6,0,0,0,.1.4c0,.1-.1.3-.1.4C97.46,49.6,94.16,51.3,90.66,53Z" style="fill: #fff;stroke: #fff;stroke-miterlimit: 10;stroke-width: 2px"/>
      </g>
      <circle cx="22" cy="80.6" r="22" style="fill: #3a4185"/>
      <path d="M28.44,75.09a1.22,1.22,0,0,0,2.42,0c0-3.33-3.34-6.08-7.65-6.52V63.31a1.22,1.22,0,0,0-2.42,0v5.26c-4.31.44-7.65,3.19-7.65,6.52s3.34,6.08,7.65,6.52v8.84c-3-.39-5.23-2.19-5.23-4.35a1.22,1.22,0,0,0-2.42,0c0,3.33,3.34,6.08,7.65,6.52v5.26a1.22,1.22,0,0,0,2.42,0V92.63c4.31-.44,7.65-3.19,7.65-6.52S27.53,80,23.21,79.59V70.75C26.19,71.14,28.44,72.94,28.44,75.09Zm-12.88,0c0-2.15,2.26-4,5.23-4.34v8.68C17.82,79,15.56,77.25,15.56,75.09Zm12.88,11c0,2.16-2.26,4-5.23,4.35V81.76C26.19,82.15,28.44,84,28.44,86.11Z" style="fill: #fff;stroke: #fff;stroke-miterlimit: 10;stroke-width: 3px"/>
    </g>
  </g>
</svg>
