<svg xmlns="http://www.w3.org/2000/svg" viewBox="0 0 90.45 93.5">
  <title>Печать</title>
  <g id="1ee727ee-8aa8-4786-acbe-018471e54d9a" data-name="Layer 2">
    <g id="9b687387-4556-4faa-8a47-a7ca9a01ab2c" data-name="Layer 1">
      <g>
        <path d="M17.44,74.86c-2.92,0-6.5.56-9.34-.31-4.29-1.32-5-5.37-5-9.18V45.13c0-6-1.13-14.05,7.3-14.61,3.66-.24,7.42,0,11.09,0h43c4.75,0,9.53-.15,14.28,0,1.9.06,3.6,0,5.34,1.18,3.29,2.18,3.16,5.55,3.16,8.91V63.44c0,2.7.41,5.9-1.18,8.26-2.83,4.23-8.78,3.16-13.15,3.16a1.5,1.5,0,0,0,0,3c7.73,0,16.72,0,17.33-10.07.4-6.6,0-13.34,0-19.94,0-5.89,1.42-13.77-3.69-18-3.77-3.13-9.29-2.31-13.86-2.31H22.64c-4.13,0-8.33-.24-12.46,0C1.88,28,.11,34.67.11,41.6c0,8.5-.24,17,0,25.54C.22,71.25,2,75,5.81,76.86c3.46,1.67,7.91,1,11.63,1a1.5,1.5,0,0,0,0-3Z" style="fill: #3a4185"/>
        <path d="M73,90.5H17.58l1.5,1.5V53.72l-1.5,1.5H73l-1.5-1.5V92a1.5,1.5,0,0,0,3,0V53.72a1.52,1.52,0,0,0-1.5-1.5H17.58a1.52,1.52,0,0,0-1.5,1.5V92a1.52,1.52,0,0,0,1.5,1.5H73A1.5,1.5,0,0,0,73,90.5Z" style="fill: #3a4185"/>
        <path d="M73,27.17H17.41l1.5,1.5V1.5L17.41,3H73l-1.5-1.5V28.67a1.5,1.5,0,0,0,3,0V1.5A1.52,1.52,0,0,0,73,0H17.41a1.52,1.52,0,0,0-1.5,1.5V28.67a1.52,1.52,0,0,0,1.5,1.5H73A1.5,1.5,0,0,0,73,27.17Z" style="fill: #3a4185"/>
        <g>
          <rect x="23.61" y="61.5" width="29" height="2" style="fill: #fff"/>
          <path d="M52.61,62h-29l1.5,1.5v-2L23.61,63h29l-1.5-1.5v2a1.5,1.5,0,0,0,3,0v-2a1.52,1.52,0,0,0-1.5-1.5h-29a1.52,1.52,0,0,0-1.5,1.5v2a1.52,1.52,0,0,0,1.5,1.5h29A1.5,1.5,0,0,0,52.61,62Z" style="fill: #3a4185"/>
        </g>
        <g>
          <rect x="23.61" y="69.5" width="29" height="2" style="fill: #fff"/>
          <path d="M52.61,70h-29l1.5,1.5v-2L23.61,71h29l-1.5-1.5v2a1.5,1.5,0,0,0,3,0v-2a1.52,1.52,0,0,0-1.5-1.5h-29a1.52,1.52,0,0,0-1.5,1.5v2a1.52,1.52,0,0,0,1.5,1.5h29A1.5,1.5,0,0,0,52.61,70Z" style="fill: #3a4185"/>
        </g>
        <g>
          <rect x="23.61" y="77.5" width="20" height="2" style="fill: #fff"/>
          <path d="M43.61,78h-20l1.5,1.5v-2L23.61,79h20l-1.5-1.5v2a1.5,1.5,0,0,0,3,0v-2a1.52,1.52,0,0,0-1.5-1.5h-20a1.52,1.52,0,0,0-1.5,1.5v2a1.52,1.52,0,0,0,1.5,1.5h20A1.5,1.5,0,0,0,43.61,78Z" style="fill: #3a4185"/>
        </g>
      </g>
    </g>
  </g>
</svg>
