<svg xmlns="http://www.w3.org/2000/svg" viewBox="0 0 69.5 84.4">
  <title>Часы</title>
  <g id="a6bab1f8-cce0-4fcc-b237-63572cfe6425" data-name="Layer 2">
    <g id="79956ecb-5bb5-4347-9392-bea823ca4e58" data-name="Layer 1">
      <g>
        <path d="M61.5,14.9l1.1-4.2h4.8A1.58,1.58,0,0,0,69,9.1v-7A1.58,1.58,0,0,0,67.4.5H2.1A1.58,1.58,0,0,0,.5,2.1v7a1.58,1.58,0,0,0,1.6,1.6H6.9L8,14.9A35.18,35.18,0,0,0,30.3,39.8v3.8A35.6,35.6,0,0,0,8,68.5L6.6,73.7H2.1A1.58,1.58,0,0,0,.5,75.3v7a1.58,1.58,0,0,0,1.6,1.6H67.4A1.58,1.58,0,0,0,69,82.3v-7a1.58,1.58,0,0,0-1.6-1.6H62.9l-1.3-5.3A36,36,0,0,0,39.2,43.6V39.8A35.6,35.6,0,0,0,61.5,14.9ZM3.7,3.7h62V7.4H3.7Zm62.1,77H3.8V77h62ZM37.2,46.1A32.37,32.37,0,0,1,58.6,69.2l1.1,4.5H9.7l1.1-4.5A32.76,32.76,0,0,1,32.2,46.1a1.5,1.5,0,0,0,1-1.4V38.8a1.5,1.5,0,0,0-1-1.4A32.94,32.94,0,0,1,10.9,14.2L10,10.7H59.5l-.9,3.5A32.55,32.55,0,0,1,37.2,37.3a1.5,1.5,0,0,0-1,1.4v5.9A1.54,1.54,0,0,0,37.2,46.1Z" style="fill: #3a4185"/>
        <path d="M67.4,84.4H2.1A2.08,2.08,0,0,1,0,82.3v-7a2.08,2.08,0,0,1,2.1-2.1H6.22l1.3-4.83A36.25,36.25,0,0,1,29.8,43.25V40.15A35.83,35.83,0,0,1,7.51,15l-1-3.82H2.1A2.08,2.08,0,0,1,0,9.1v-7A2.08,2.08,0,0,1,2.1,0H67.4a2.08,2.08,0,0,1,2.1,2.1v7a2.08,2.08,0,0,1-2.1,2.1H63L62,15A36.26,36.26,0,0,1,39.7,40.15v3.11a36.65,36.65,0,0,1,22.38,25l1.21,4.93H67.4a2.08,2.08,0,0,1,2.1,2.1v7A2.08,2.08,0,0,1,67.4,84.4ZM2.1,74.2A1.08,1.08,0,0,0,1,75.3v7a1.08,1.08,0,0,0,1.1,1.1H67.4a1.08,1.08,0,0,0,1.1-1.1v-7a1.08,1.08,0,0,0-1.1-1.1H62.51l-1.39-5.68A35.64,35.64,0,0,0,39,44.07l-.33-.12v-4.5l.33-.12A35.26,35.26,0,0,0,61,14.78h0l1.2-4.57H67.4a1.08,1.08,0,0,0,1.1-1.1v-7A1.08,1.08,0,0,0,67.4,1H2.1A1.08,1.08,0,0,0,1,2.1v7a1.08,1.08,0,0,0,1.1,1.1H7.29l1.2,4.57a34.85,34.85,0,0,0,22,24.56l.33.12v4.5l-.33.12a35.25,35.25,0,0,0-22,24.55L7,74.2Zm64.2,7H3.3V76.5h63Zm-62-1h61V77.5H4.3Zm56-6H9.06l1.25-5.12A33.19,33.19,0,0,1,32,45.63a1,1,0,0,0,.66-.93V38.8a1,1,0,0,0-.66-.93A33.49,33.49,0,0,1,10.41,14.32L9.36,10.2H60.14l-1.06,4.12A33.09,33.09,0,0,1,37.36,37.77a1,1,0,0,0-.66.93v5.9a1,1,0,0,0,.66,1A32.8,32.8,0,0,1,59.08,69.08Zm-50-1H59.06l-.95-3.88A31.81,31.81,0,0,0,37,46.57h0a2,2,0,0,1-1.34-2V38.7A2,2,0,0,1,37,36.83,32.09,32.09,0,0,0,58.11,14.08l.74-2.88H10.64l.74,2.88a32.48,32.48,0,0,0,21,22.85A2,2,0,0,1,33.7,38.8v5.9a2,2,0,0,1-1.34,1.87A32.19,32.19,0,0,0,11.28,69.32ZM66.2,7.9H3.2V3.2h63Zm-62-1h61V4.2H4.2Z" style="fill: #3a4185"/>
      </g>
    </g>
  </g>
</svg>
