<svg xmlns="http://www.w3.org/2000/svg" viewBox="0 0 48 48">
  <title>Сайт</title>
  <g id="07749d9a-5717-4313-8fa7-7a30fe9d0e67" data-name="Layer 2">
    <g id="84b430b7-1e30-4a28-acd6-a2a9e79d4c02" data-name="Layer 1">
      <g>
        <circle cx="24" cy="24" r="24" style="fill: #3c5b9b"/>
        <g id="8d6abd7d-6821-4f28-b46e-e0c880c1a0db" data-name="&lt;Group&gt;">
          <g id="41d590c4-3eb7-4d48-8e80-96ac5975edf3" data-name="&lt;Group&gt;">
            <path d="M23.05,41.71h1.7a17.72,17.72,0,0,0,0-35.42h-1.7a17.73,17.73,0,0,0,0,35.41ZM12.35,35.46A19.81,19.81,0,0,1,16,33.38a21.21,21.21,0,0,0,5,6.7A16.4,16.4,0,0,1,12.35,35.46Zm11,4.73a20.27,20.27,0,0,1-6.07-7.33,20.48,20.48,0,0,1,6.07-1.21Zm0-9.9a21.85,21.85,0,0,0-6.62,1.32,20.21,20.21,0,0,1-1.42-6.34h8Zm0-6.39H15.24a20.44,20.44,0,0,1,1.1-6.56,21.53,21.53,0,0,0,7,1.48Zm3.43,16.23a21.18,21.18,0,0,0,5.22-7,19.85,19.85,0,0,1,3.9,2.12A16.35,16.35,0,0,1,26.75,40.13Zm10-5.91a21.15,21.15,0,0,0-4.28-2.34,21.64,21.64,0,0,0,1.42-6.61h6.4A16.2,16.2,0,0,1,36.77,34.21Zm.51-19.74a16.2,16.2,0,0,1,3.07,9.42H34a21.83,21.83,0,0,0-1.12-6.82A21.62,21.62,0,0,0,37.28,14.47Zm-.85-1.08a20.25,20.25,0,0,1-4.08,2.39,21.44,21.44,0,0,0-5.61-7.9A16.28,16.28,0,0,1,36.44,13.39ZM24.69,8a20.12,20.12,0,0,1,6.39,8.33,20.16,20.16,0,0,1-6.39,1.18Zm0,10.88a21.54,21.54,0,0,0,6.86-1.26,20.46,20.46,0,0,1,1,6.32H24.69Zm0,6.43h7.85a20.26,20.26,0,0,1-1.33,6.13,21.87,21.87,0,0,0-6.52-1.12Zm0,6.38a20.5,20.5,0,0,1,6,1,20.23,20.23,0,0,1-6,7.39ZM23.32,7.81v9.64a20.16,20.16,0,0,1-6.48-1.39A20.15,20.15,0,0,1,23.32,7.81ZM21,7.92a21.48,21.48,0,0,0-5.45,7.59,20.18,20.18,0,0,1-3.8-2.36A16.33,16.33,0,0,1,21,7.92ZM10.9,14.22a21.57,21.57,0,0,0,4.17,2.58,21.81,21.81,0,0,0-1.21,7.1H7.64A16.18,16.18,0,0,1,10.9,14.22ZM7.7,25.27h6.21a21.59,21.59,0,0,0,1.52,6.85,21.21,21.21,0,0,0-4,2.32A16.18,16.18,0,0,1,7.7,25.27Z" style="fill: #fff"/>
            <path d="M24.76,41.85H23A17.86,17.86,0,0,1,23,6.17h1.75a17.86,17.86,0,0,1,0,35.69Zm-1.7-.28h1.7a17.59,17.59,0,0,0,0-35.14H23.06a17.59,17.59,0,0,0,0,35.13Zm.4-1.1-.22-.16a20.45,20.45,0,0,1-6.11-7.38l-.07-.14.14-.05a20.63,20.63,0,0,1,6.11-1.21h.14Zm-6-7.52a20.17,20.17,0,0,0,5.74,7V31.8A20.36,20.36,0,0,0,17.44,32.94Zm8.86,7.4.36-.32a21.07,21.07,0,0,0,5.18-6.95L31.9,33,32,33a20,20,0,0,1,3.93,2.13l.13.09-.11.11a16.59,16.59,0,0,1-9.19,4.92Zm5.73-7a21.3,21.3,0,0,1-4.84,6.6,16.33,16.33,0,0,0,8.46-4.63A19.75,19.75,0,0,0,32,33.31Zm-7.48,7V31.5h.14a20.65,20.65,0,0,1,6,1l.15,0-.07.14a20.42,20.42,0,0,1-6,7.44Zm.27-8.54v8a20.15,20.15,0,0,0,5.66-7A20.37,20.37,0,0,0,24.82,31.78Zm-3.35,8.52L21,40.22a16.65,16.65,0,0,1-8.75-4.66l-.11-.11.13-.09a20,20,0,0,1,3.65-2.1L16,33.2l.06.12a21.09,21.09,0,0,0,5,6.66Zm-8.92-4.82a16.4,16.4,0,0,0,8,4.37,21.33,21.33,0,0,1-4.66-6.29A19.7,19.7,0,0,0,12.56,35.48Zm-1.16-.85-.08-.1a16.34,16.34,0,0,1-3.76-9.24v-.15H14v.13a21.47,21.47,0,0,0,1.51,6.81l0,.12-.12.05a21.09,21.09,0,0,0-4,2.3ZM7.84,25.41a16.07,16.07,0,0,0,3.6,8.85,21.36,21.36,0,0,1,3.8-2.2,21.73,21.73,0,0,1-1.47-6.65Zm29,9-.1-.07A21,21,0,0,0,32.44,32l-.12-.05,0-.12a21.52,21.52,0,0,0,1.41-6.57v-.13h6.67v.15a16.37,16.37,0,0,1-3.56,9Zm-4.13-2.6A21.32,21.32,0,0,1,36.75,34a16.09,16.09,0,0,0,3.41-8.63H34A21.79,21.79,0,0,1,32.67,31.79Zm-16.05,0,0-.12a20.36,20.36,0,0,1-1.42-6.38v-.14h8.32v5.29h-.13a21.73,21.73,0,0,0-6.58,1.31Zm-1.19-6.38a20.09,20.09,0,0,0,1.35,6,22,22,0,0,1,6.41-1.28V25.4Zm15.86,6.16-.12,0a21.75,21.75,0,0,0-6.48-1.11h-.13V25.13h8.13v.14a20.41,20.41,0,0,1-1.34,6.17Zm-6.46-1.42a22,22,0,0,1,6.3,1.08,20.13,20.13,0,0,0,1.27-5.83H24.82ZM7.51,24V23.9a16.33,16.33,0,0,1,3.29-9.77l.08-.11.11.09a21.45,21.45,0,0,0,4.14,2.56l.11.05,0,.12A21.69,21.69,0,0,0,14,23.9V24Zm3.42-9.63a16.05,16.05,0,0,0-3.15,9.36h5.95a22,22,0,0,1,1.18-6.9A21.72,21.72,0,0,1,10.93,14.41ZM15.1,24V23.9a20.58,20.58,0,0,1,1.11-6.6l0-.13.13.05a21.41,21.41,0,0,0,6.93,1.47h.13V24Zm1.32-6.52a20.31,20.31,0,0,0-1.05,6.24h7.81V19A21.68,21.68,0,0,1,16.42,17.52ZM24.55,24V18.7h.13a21.41,21.41,0,0,0,6.82-1.26l.13,0,0,.13a20.6,20.6,0,0,1,1,6.36V24ZM24.82,19v4.79h7.62a20.33,20.33,0,0,0-1-6A21.69,21.69,0,0,1,24.82,19Zm9,5.06v-.14a21.7,21.7,0,0,0-1.11-6.78l0-.12.11,0a21.5,21.5,0,0,0,4.43-2.58l.11-.08.08.11a16.35,16.35,0,0,1,3.1,9.5V24ZM33,17.14a22,22,0,0,1,1.09,6.61h6.14a16.08,16.08,0,0,0-3-9.09A21.78,21.78,0,0,1,33,17.14Zm-8.45.46V7.68l.22.17a20.3,20.3,0,0,1,6.44,8.39l.05.13-.13,0a20.3,20.3,0,0,1-6.44,1.18Zm.27-9.37v9.09a20,20,0,0,0,6.08-1.12A20,20,0,0,0,24.82,8.23Zm-1.37,9.36h-.14a20.31,20.31,0,0,1-6.53-1.4l-.13-.05.05-.13A20.33,20.33,0,0,1,23.23,7.7l.22-.16ZM17,16a20,20,0,0,0,6.17,1.32V8.09A20.05,20.05,0,0,0,17,16Zm15.27,0-.05-.13A21.39,21.39,0,0,0,26.66,8l-.35-.31.47.08a16.5,16.5,0,0,1,9.77,5.56l.09.11-.12.09a20.4,20.4,0,0,1-4.11,2.41ZM27.19,8.1a21.66,21.66,0,0,1,5.24,7.5,20.14,20.14,0,0,0,3.81-2.23A16.24,16.24,0,0,0,27.19,8.1ZM15.64,15.7l-.13-.06a20.35,20.35,0,0,1-3.83-2.37l-.11-.09.1-.11A16.56,16.56,0,0,1,21,7.79l.48-.09L21.11,8a21.42,21.42,0,0,0-5.41,7.54ZM12,13.14a20.07,20.07,0,0,0,3.53,2.19,21.69,21.69,0,0,1,5.07-7.18A16.31,16.31,0,0,0,12,13.14Z" style="fill: #fff"/>
          </g>
        </g>
      </g>
    </g>
  </g>
</svg>
