<svg xmlns="http://www.w3.org/2000/svg" viewBox="0 0 48 48">
  <title>Твит</title>
  <g id="11ce3c77-0e5e-430b-be1b-60190639e185" data-name="Layer 2">
    <g id="5fbad869-f85f-4144-a2d9-a3f2c711ca42" data-name="Layer 1">
      <g>
        <circle cx="24" cy="24" r="24" style="fill: #2daae1"/>
        <path d="M38.17,12.26a12.32,12.32,0,0,1-3.91,1.5A6.16,6.16,0,0,0,23.62,18a6.26,6.26,0,0,0,.16,1.4,17.47,17.47,0,0,1-12.69-6.43A6.16,6.16,0,0,0,13,21.15a6.12,6.12,0,0,1-2.79-.77v.08a6.16,6.16,0,0,0,4.94,6,6.14,6.14,0,0,1-2.78.11,6.16,6.16,0,0,0,5.75,4.28,12.35,12.35,0,0,1-7.64,2.63A12.56,12.56,0,0,1,9,33.43a17.42,17.42,0,0,0,9.43,2.76c11.32,0,17.51-9.38,17.51-17.51,0-.27,0-.53,0-.8A12.48,12.48,0,0,0,39,14.7a12.25,12.25,0,0,1-3.53,1A6.17,6.17,0,0,0,38.17,12.26Z" style="fill: #fff"/>
      </g>
    </g>
  </g>
</svg>
