<svg xmlns="http://www.w3.org/2000/svg" viewBox="0 0 202 106.32">
  <title>USA</title>
  <g id="d90e3d41-284f-4496-83d6-ba29538702f1" data-name="Layer 2">
    <g id="7e29565f-2463-4569-8bcf-4db31e97d497" data-name="Layer 1">
      <rect width="202" height="106.32" style="fill: #fff"/>
      <rect id="2082a27d-8fca-4f25-b3bb-87715e1e6772" data-name="stripe" width="202" height="8.18" style="fill: #bf0a30"/>
      <rect id="698cc5ba-ed58-450a-a1c9-12a2e83ebd28" data-name="stripe" y="16.36" width="202" height="8.18" style="fill: #bf0a30"/>
      <rect id="ebc21c45-c079-4853-8100-f6e61dce4ecf" data-name="stripe" y="32.71" width="202" height="8.18" style="fill: #bf0a30"/>
      <rect id="38ff08e7-0192-4561-b8fa-adbc517269e4" data-name="stripe" y="49.07" width="202" height="8.18" style="fill: #bf0a30"/>
      <rect id="43250f49-ca9f-498c-9fbf-88d53ea3a960" data-name="stripe" y="65.43" width="202" height="8.18" style="fill: #bf0a30"/>
      <rect id="0defe1a7-3095-4bd7-b5e7-c952dd690943" data-name="stripe" y="81.78" width="202" height="8.18" style="fill: #bf0a30"/>
      <rect id="57f4068c-5ebd-46ec-87ad-7e1a91902bc7" data-name="stripe" y="98.14" width="202" height="8.18" style="fill: #bf0a30"/>
      <rect width="80.8" height="57.25" style="fill: #002868"/>
      <g>
        <g id="e9bde05a-9a6f-4e5d-b58a-2b3d2c4c1b43" data-name="star">
          <polygon id="8ad3a606-a109-40d7-8c04-69ca1188f11e" data-name="pt" points="7.77 6.29 4.99 8.31 6.05 5.03 7.77 6.29" style="fill: #fff"/>
          <polygon id="909ba214-2af1-435b-a03a-80ab419a7ccc" data-name="pt" points="6.58 6.67 3.8 4.65 7.24 4.65 6.58 6.67" style="fill: #fff"/>
          <polygon id="af7a93a6-98e8-41e1-9ec0-47b8f786f426" data-name="pt" points="5.85 5.66 6.91 2.38 7.97 5.66 5.85 5.66" style="fill: #fff"/>
          <polygon id="54d8fd7b-63bb-4df4-bb04-a41d3be70b8b" data-name="pt" points="6.58 4.65 10.03 4.65 7.24 6.67 6.58 4.65" style="fill: #fff"/>
          <polygon id="eb30fe82-7e04-497a-8153-58dbd040eed0" data-name="pt" points="7.77 5.03 8.84 8.31 6.05 6.29 7.77 5.03" style="fill: #fff"/>
        </g>
        <g>
          <g id="f171a871-a796-4f24-81f2-66dce956be9c" data-name="star">
            <polygon id="7c50c1c5-d4a4-4dba-91b6-02b3a9a43ba5" data-name="pt" points="21.17 6.29 18.38 8.31 19.45 5.03 21.17 6.29" style="fill: #fff"/>
            <polygon id="b0035d82-bf68-449f-a341-8b8a392fe998" data-name="pt" points="19.98 6.67 17.19 4.65 20.64 4.65 19.98 6.67" style="fill: #fff"/>
            <polygon id="90b18747-0a0c-44dd-815c-ab5020c991e6" data-name="pt" points="19.24 5.66 20.31 2.38 21.37 5.66 19.24 5.66" style="fill: #fff"/>
            <polygon id="138f0b2e-10bf-4496-a6a7-190bd8d8d7e7" data-name="pt" points="19.98 4.65 23.42 4.65 20.64 6.67 19.98 4.65" style="fill: #fff"/>
            <polygon id="bdd1dd8a-6387-4a41-abaf-037282415f5f" data-name="pt" points="21.17 5.03 22.23 8.31 19.45 6.29 21.17 5.03" style="fill: #fff"/>
          </g>
          <g>
            <g id="46fb7946-7a23-4468-8c92-9215263a3fc0" data-name="star">
              <polygon id="3613b939-5fb5-4596-a256-c2ab0016166d" data-name="pt" points="34.56 6.29 31.78 8.31 32.84 5.03 34.56 6.29" style="fill: #fff"/>
              <polygon id="db598658-ffdd-4a91-9d3f-69638e4f34f3" data-name="pt" points="33.37 6.67 30.59 4.65 34.03 4.65 33.37 6.67" style="fill: #fff"/>
              <polygon id="6728c14c-c3b3-4a5a-8a1f-00802326ecba" data-name="pt" points="32.64 5.66 33.7 2.38 34.77 5.66 32.64 5.66" style="fill: #fff"/>
              <polygon id="4db2c684-c6e2-43ae-88da-885aa0fdb6d0" data-name="pt" points="33.37 4.65 36.82 4.65 34.03 6.67 33.37 4.65" style="fill: #fff"/>
              <polygon id="2e31214c-0a29-4e61-b250-8c82322f8b8f" data-name="pt" points="34.56 5.03 35.63 8.31 32.84 6.29 34.56 5.03" style="fill: #fff"/>
            </g>
            <g>
              <g id="181a6420-2759-402b-8609-0e1afb723890" data-name="star">
                <polygon id="cbf02e24-9890-41e8-9b1a-1625a56adc13" data-name="pt" points="47.96 6.29 45.17 8.31 46.24 5.03 47.96 6.29" style="fill: #fff"/>
                <polygon id="897e5ccb-5284-42e4-aedb-d54149ac60f5" data-name="pt" points="46.77 6.67 43.98 4.65 47.43 4.65 46.77 6.67" style="fill: #fff"/>
                <polygon id="f31c19dc-0e47-442c-b963-50f8cfbdf1ef" data-name="pt" points="46.03 5.66 47.1 2.38 48.16 5.66 46.03 5.66" style="fill: #fff"/>
                <polygon id="86e8936f-dfb8-4ec8-86d3-e5c563c45edc" data-name="pt" points="46.77 4.65 50.21 4.65 47.43 6.67 46.77 4.65" style="fill: #fff"/>
                <polygon id="782988ed-6fe0-470b-99ab-3d6ab5beae7a" data-name="pt" points="47.96 5.03 49.02 8.31 46.24 6.29 47.96 5.03" style="fill: #fff"/>
              </g>
              <g id="7e0fe3d7-e56d-4cf9-90c5-2797e03d8a0a" data-name="s5">
                <g id="7c1513eb-6688-45a8-b818-743c8b25a744" data-name="star">
                  <polygon id="f260f2eb-9e6f-4406-8edb-613d3d26c381" data-name="pt" points="61.35 6.29 58.57 8.31 59.63 5.03 61.35 6.29" style="fill: #fff"/>
                  <polygon id="21ecfe87-ea5c-46b5-a9fb-724f8ef70d4e" data-name="pt" points="60.16 6.67 57.38 4.65 60.82 4.65 60.16 6.67" style="fill: #fff"/>
                  <polygon id="83c0ca46-9e39-40b3-a836-5e68155f1034" data-name="pt" points="59.43 5.66 60.49 2.38 61.56 5.66 59.43 5.66" style="fill: #fff"/>
                  <polygon id="a01e27f5-53d2-44d9-81c6-e115dd609380" data-name="pt" points="60.16 4.65 63.61 4.65 60.82 6.67 60.16 4.65" style="fill: #fff"/>
                  <polygon id="69a054fb-afdf-4d1d-bf49-420fc4efcf1e" data-name="pt" points="61.35 5.03 62.42 8.31 59.63 6.29 61.35 5.03" style="fill: #fff"/>
                </g>
              </g>
              <g id="6e6cadba-6b0b-46f4-89af-ee4aee7df3b1" data-name="s6">
                <g id="86876cc2-8d76-476a-a531-a787febe4edc" data-name="star">
                  <polygon id="b9775c3e-d493-43fd-9815-2f1c1f7d082d" data-name="pt" points="74.75 6.29 71.97 8.31 73.03 5.03 74.75 6.29" style="fill: #fff"/>
                  <polygon id="a882952c-9b67-4698-9ea2-e4db3e1915c4" data-name="pt" points="73.56 6.67 70.78 4.65 74.22 4.65 73.56 6.67" style="fill: #fff"/>
                  <polygon id="9ab63afe-5212-42c3-8dd3-fb1ad193ac7d" data-name="pt" points="72.83 5.66 73.89 2.38 74.95 5.66 72.83 5.66" style="fill: #fff"/>
                  <polygon id="fa8e2740-885a-4787-be65-71b0e23b54fd" data-name="pt" points="73.56 4.65 77 4.65 74.22 6.67 73.56 4.65" style="fill: #fff"/>
                  <polygon id="0a91fa7a-0082-4513-8966-cba54d5385d1" data-name="pt" points="74.75 5.03 75.81 8.31 73.03 6.29 74.75 5.03" style="fill: #fff"/>
                </g>
              </g>
              <g>
                <g id="4bd7a8fd-32c1-444e-9f5d-ece0a9f6cc1c" data-name="star">
                  <polygon id="1463b3b2-7e17-44f7-8247-1e818926e7c0" data-name="pt" points="14.47 12.03 11.68 14.05 12.75 10.78 14.47 12.03" style="fill: #fff"/>
                  <polygon id="87ecf575-bc9c-4ab1-8e5c-3aa3fc25a92e" data-name="pt" points="13.28 12.41 10.49 10.39 13.94 10.39 13.28 12.41" style="fill: #fff"/>
                  <polygon id="b9cfdeb3-4a55-437a-9e8f-c6ef5c44bdde" data-name="pt" points="12.54 11.4 13.61 8.13 14.67 11.4 12.54 11.4" style="fill: #fff"/>
                  <polygon id="2d460a23-d532-4e56-bf51-443ad3926d91" data-name="pt" points="13.28 10.39 16.72 10.39 13.94 12.41 13.28 10.39" style="fill: #fff"/>
                  <polygon id="51dbe612-e805-484a-a028-3f91a7a4a7c0" data-name="pt" points="14.47 10.78 15.53 14.05 12.75 12.03 14.47 10.78" style="fill: #fff"/>
                </g>
                <g>
                  <g id="784efd7f-847d-4aaa-b60a-61f403781a72" data-name="star">
                    <polygon id="9be177ad-b18e-4d2a-9209-605fd9342c00" data-name="pt" points="27.86 12.03 25.08 14.05 26.14 10.78 27.86 12.03" style="fill: #fff"/>
                    <polygon id="6fa34ed5-c468-4b79-ad97-75070a5bc9aa" data-name="pt" points="26.68 12.41 23.89 10.39 27.33 10.39 26.68 12.41" style="fill: #fff"/>
                    <polygon id="670d872a-fd42-428d-a8ca-da4c8445adf1" data-name="pt" points="25.94 11.4 27 8.13 28.07 11.4 25.94 11.4" style="fill: #fff"/>
                    <polygon id="16eb1969-c43e-44d0-8c45-ebf53189b18d" data-name="pt" points="26.68 10.39 30.12 10.39 27.33 12.41 26.68 10.39" style="fill: #fff"/>
                    <polygon id="a16150e9-1a1a-4487-8540-6c557dbbe974" data-name="pt" points="27.86 10.78 28.93 14.05 26.14 12.03 27.86 10.78" style="fill: #fff"/>
                  </g>
                  <g>
                    <g id="5fcda3db-d70e-4c0b-9943-1db4067bb483" data-name="star">
                      <polygon id="cd193b98-d4a3-4223-af09-20ed6ad23baf" data-name="pt" points="41.26 12.03 38.48 14.05 39.54 10.78 41.26 12.03" style="fill: #fff"/>
                      <polygon id="39351b20-8bb1-499b-bc21-de9adae91d72" data-name="pt" points="40.07 12.41 37.29 10.39 40.73 10.39 40.07 12.41" style="fill: #fff"/>
                      <polygon id="eed3ebb0-11ad-4535-a100-fe553ade22ce" data-name="pt" points="39.34 11.4 40.4 8.13 41.46 11.4 39.34 11.4" style="fill: #fff"/>
                      <polygon id="7eb110d2-8bfa-4b44-944c-3e08d65309ff" data-name="pt" points="40.07 10.39 43.51 10.39 40.73 12.41 40.07 10.39" style="fill: #fff"/>
                      <polygon id="1366e51c-7df4-489d-970c-046e87daa922" data-name="pt" points="41.26 10.78 42.33 14.05 39.54 12.03 41.26 10.78" style="fill: #fff"/>
                    </g>
                    <g>
                      <g id="e8d7a9d3-d69a-474e-8c13-d0786853c2d4" data-name="star">
                        <polygon id="b7c1d922-3af0-45cb-b050-b45c65ea85ad" data-name="pt" points="54.66 12.03 51.87 14.05 52.94 10.78 54.66 12.03" style="fill: #fff"/>
                        <polygon id="67f1f64b-d08b-47ff-8297-c4e6bc665fb5" data-name="pt" points="53.47 12.41 50.68 10.39 54.13 10.39 53.47 12.41" style="fill: #fff"/>
                        <polygon id="bfdde985-c92f-46b4-a966-f4783cde0149" data-name="pt" points="52.73 11.4 53.8 8.13 54.86 11.4 52.73 11.4" style="fill: #fff"/>
                        <polygon id="315a5d20-4d91-46b7-9d42-a333226f40bb" data-name="pt" points="53.47 10.39 56.91 10.39 54.13 12.41 53.47 10.39" style="fill: #fff"/>
                        <polygon id="3bc8fc82-197b-4a1d-a874-c1937fd5b1a5" data-name="pt" points="54.66 10.78 55.72 14.05 52.94 12.03 54.66 10.78" style="fill: #fff"/>
                      </g>
                      <g id="747b313d-905d-4134-abda-7f82a45d3d73" data-name="s5">
                        <g id="36b6ec4a-7b06-4df0-b0bc-14dbb7285882" data-name="star">
                          <polygon id="d88698e4-e97a-4e6f-8871-ac7a9aa27dcc" data-name="pt" points="68.05 12.03 65.27 14.05 66.33 10.78 68.05 12.03" style="fill: #fff"/>
                          <polygon id="0e56337e-fe3c-4a2b-8716-259373e706cb" data-name="pt" points="66.86 12.41 64.08 10.39 67.52 10.39 66.86 12.41" style="fill: #fff"/>
                          <polygon id="15cfb6c0-85e4-4cfb-88d4-63afc04aa310" data-name="pt" points="66.13 11.4 67.19 8.13 68.26 11.4 66.13 11.4" style="fill: #fff"/>
                          <polygon id="3c574020-ee9c-4bab-8ee4-0b4372069c15" data-name="pt" points="66.86 10.39 70.31 10.39 67.52 12.41 66.86 10.39" style="fill: #fff"/>
                          <polygon id="acdfffa0-4927-4d00-923f-d6dd0b120c61" data-name="pt" points="68.05 10.78 69.12 14.05 66.33 12.03 68.05 10.78" style="fill: #fff"/>
                        </g>
                      </g>
                      <g>
                        <g id="33b92984-7526-4ee0-bf26-8ccded02ffd1" data-name="star">
                          <polygon id="80add83f-066f-42d9-a009-f2837cbf5d83" data-name="pt" points="7.77 17.77 4.99 19.79 6.05 16.52 7.77 17.77" style="fill: #fff"/>
                          <polygon id="e8c72745-cf19-41ce-9130-9c5693482d49" data-name="pt" points="6.58 18.15 3.8 16.13 7.24 16.13 6.58 18.15" style="fill: #fff"/>
                          <polygon id="c7a3fafa-3475-4c19-9715-e72e17d7abd0" data-name="pt" points="5.85 17.14 6.91 13.87 7.97 17.14 5.85 17.14" style="fill: #fff"/>
                          <polygon id="e1cacb68-d6b2-4af7-8c90-3e126bb078a5" data-name="pt" points="6.58 16.13 10.03 16.13 7.24 18.15 6.58 16.13" style="fill: #fff"/>
                          <polygon id="4b5ef142-9437-4e31-8c2f-e77fc10a17c6" data-name="pt" points="7.77 16.52 8.84 19.79 6.05 17.77 7.77 16.52" style="fill: #fff"/>
                        </g>
                        <g>
                          <g id="3734039e-965a-47e6-8d0c-2ba94ef8c24f" data-name="star">
                            <polygon id="596d7e9e-9b27-4eed-8028-e923fe2b6e2b" data-name="pt" points="21.17 17.77 18.38 19.79 19.45 16.52 21.17 17.77" style="fill: #fff"/>
                            <polygon id="29790853-c306-4308-b43b-50d2b7095b42" data-name="pt" points="19.98 18.15 17.19 16.13 20.64 16.13 19.98 18.15" style="fill: #fff"/>
                            <polygon id="a1ea39c2-a811-4e19-b1ab-2a7fb553b391" data-name="pt" points="19.24 17.14 20.31 13.87 21.37 17.14 19.24 17.14" style="fill: #fff"/>
                            <polygon id="c5852bfc-ec7f-47c5-8b34-2da692f30d4f" data-name="pt" points="19.98 16.13 23.42 16.13 20.64 18.15 19.98 16.13" style="fill: #fff"/>
                            <polygon id="fa5699ff-aa61-4936-b5b4-db105f246766" data-name="pt" points="21.17 16.52 22.23 19.79 19.45 17.77 21.17 16.52" style="fill: #fff"/>
                          </g>
                          <g>
                            <g id="eb8a146f-9cdb-44e1-92d5-780492fedab4" data-name="star">
                              <polygon id="24fa6d91-c4cf-4236-878f-c67e179fc0cd" data-name="pt" points="34.56 17.77 31.78 19.79 32.84 16.52 34.56 17.77" style="fill: #fff"/>
                              <polygon id="d9e1b7f4-0621-4a28-a70f-571c727b6db3" data-name="pt" points="33.37 18.15 30.59 16.13 34.03 16.13 33.37 18.15" style="fill: #fff"/>
                              <polygon id="0daac632-3e34-46d1-bffa-558a0f8a284e" data-name="pt" points="32.64 17.14 33.7 13.87 34.77 17.14 32.64 17.14" style="fill: #fff"/>
                              <polygon id="0d5f6d4a-b0eb-4a62-bbbf-8d8e959bce29" data-name="pt" points="33.37 16.13 36.82 16.13 34.03 18.15 33.37 16.13" style="fill: #fff"/>
                              <polygon id="24fd9b5d-e4b2-44b7-9e79-f939e349f82c" data-name="pt" points="34.56 16.52 35.63 19.79 32.84 17.77 34.56 16.52" style="fill: #fff"/>
                            </g>
                            <g>
                              <g id="c488df77-9871-4efe-af8c-282a9020ac95" data-name="star">
                                <polygon id="12e4ced2-7a10-49a7-8f04-77cfe4ca85b4" data-name="pt" points="47.96 17.77 45.17 19.79 46.24 16.52 47.96 17.77" style="fill: #fff"/>
                                <polygon id="b7990a9b-e5bd-4e24-942e-4b079b2a68cf" data-name="pt" points="46.77 18.15 43.98 16.13 47.43 16.13 46.77 18.15" style="fill: #fff"/>
                                <polygon id="99a912e9-2adc-43c2-91de-59d8940efea9" data-name="pt" points="46.03 17.14 47.1 13.87 48.16 17.14 46.03 17.14" style="fill: #fff"/>
                                <polygon id="9564dddf-4a7c-401b-ba3f-892ea2f5bc32" data-name="pt" points="46.77 16.13 50.21 16.13 47.43 18.15 46.77 16.13" style="fill: #fff"/>
                                <polygon id="6887cc61-5d69-464a-840b-fd360ed2f484" data-name="pt" points="47.96 16.52 49.02 19.79 46.24 17.77 47.96 16.52" style="fill: #fff"/>
                              </g>
                              <g id="3f41fa86-fd17-445f-a957-73cd41d3d706" data-name="s5">
                                <g id="05079c4e-a1f4-492d-b29c-694d89df8c39" data-name="star">
                                  <polygon id="3f381b01-7d3d-466f-89fb-02750855d039" data-name="pt" points="61.35 17.77 58.57 19.79 59.63 16.52 61.35 17.77" style="fill: #fff"/>
                                  <polygon id="45953aa2-0af2-408c-b94f-71510273b693" data-name="pt" points="60.16 18.15 57.38 16.13 60.82 16.13 60.16 18.15" style="fill: #fff"/>
                                  <polygon id="04eb2932-52fc-468c-8dcb-f4eec077a649" data-name="pt" points="59.43 17.14 60.49 13.87 61.56 17.14 59.43 17.14" style="fill: #fff"/>
                                  <polygon id="cd803fe8-fb9d-45d3-b9ce-7840528d079f" data-name="pt" points="60.16 16.13 63.61 16.13 60.82 18.15 60.16 16.13" style="fill: #fff"/>
                                  <polygon id="cb0c94ba-12bf-4a1d-a7e6-07517ba55d0d" data-name="pt" points="61.35 16.52 62.42 19.79 59.63 17.77 61.35 16.52" style="fill: #fff"/>
                                </g>
                              </g>
                              <g id="3889fdd3-7fd3-4bf7-aa12-29c1bb9cebac" data-name="s6">
                                <g id="e06b6f3c-7939-4ccf-90d5-d2a9821ce991" data-name="star">
                                  <polygon id="671fa6dc-2581-4d2b-85ce-24bd2288820b" data-name="pt" points="74.75 17.77 71.97 19.79 73.03 16.52 74.75 17.77" style="fill: #fff"/>
                                  <polygon id="c8e597f5-1cff-4ccd-b79a-b4fee69bba7a" data-name="pt" points="73.56 18.15 70.78 16.13 74.22 16.13 73.56 18.15" style="fill: #fff"/>
                                  <polygon id="5729985f-7dbe-42fa-b245-ccc552d92906" data-name="pt" points="72.83 17.14 73.89 13.87 74.95 17.14 72.83 17.14" style="fill: #fff"/>
                                  <polygon id="2697bf9a-6db5-45aa-b172-e6d0d411e2eb" data-name="pt" points="73.56 16.13 77 16.13 74.22 18.15 73.56 16.13" style="fill: #fff"/>
                                  <polygon id="63e103a8-3720-4497-8ad2-d1bfaa1f8906" data-name="pt" points="74.75 16.52 75.81 19.79 73.03 17.77 74.75 16.52" style="fill: #fff"/>
                                </g>
                              </g>
                            </g>
                          </g>
                        </g>
                      </g>
                    </g>
                  </g>
                </g>
              </g>
            </g>
          </g>
        </g>
      </g>
    </g>
  </g>
</svg>
