<svg xmlns="http://www.w3.org/2000/svg" viewBox="0 0 76.25 93.61">
  <title>Посетитель активный</title>
  <g id="51a95c09-770a-4015-8783-fe7e1d5d30e9" data-name="Layer 2">
    <g id="ff115594-5181-406d-ac32-0bcb5dbb74ef" data-name="Layer 1">
      <g>
        <path d="M33.25,67.5H3.54A27,27,0,0,1,30.39,41.94,26.51,26.51,0,0,1,42,44.6a1.5,1.5,0,1,0,1.3-2.7,29.48,29.48,0,0,0-12.94-3A30,30,0,0,0,.5,69,1.5,1.5,0,0,0,2,70.5H33.25a1.5,1.5,0,0,0,0-3Z" style="fill: #3a4185"/>
        <path d="M33.25,71H2a2,2,0,0,1-2-2A30.51,30.51,0,0,1,30.39,38.44a30,30,0,0,1,13.16,3A2,2,0,0,1,41.8,45a26,26,0,0,0-11.42-2.61A26.45,26.45,0,0,0,4.08,67H33.25a2,2,0,0,1,0,4ZM30.39,39.44A29.51,29.51,0,0,0,1,69a1,1,0,0,0,1,1H33.25a1,1,0,0,0,0-2H3l0-.53a27.46,27.46,0,0,1,27.35-26,27,27,0,0,1,11.85,2.71,1,1,0,1,0,.87-1.8A29,29,0,0,0,30.39,39.44Z" style="fill: #3a4185"/>
        <path d="M31,35.52A17.51,17.51,0,1,0,13.48,18,17.53,17.53,0,0,0,31,35.52Zm0-32A14.51,14.51,0,1,1,16.48,18,14.53,14.53,0,0,1,31,3.5Z" style="fill: #3a4185"/>
        <path d="M31,36A18,18,0,1,1,49,18,18,18,0,0,1,31,36ZM31,1A17,17,0,1,0,48,18,17,17,0,0,0,31,1Zm0,32A15,15,0,1,1,46,18,15,15,0,0,1,31,33ZM31,4A14,14,0,1,0,45,18,14,14,0,0,0,31,4Z" style="fill: #3a4185"/>
        <path d="M74.25,49.5h-34a1.5,1.5,0,0,0-1.5,1.5V83a1.5,1.5,0,0,0,1.5,1.5h10.5v7.11a1.5,1.5,0,0,0,1,1.4,1.5,1.5,0,0,0,1.65-.39l9.53-8.07,11.36,0a1.5,1.5,0,0,0,1.5-1.5V51A1.5,1.5,0,0,0,74.25,49.5Zm-1.5,32H62.51a2,2,0,0,0-1.34.5l-7.43,5.72V83a1.5,1.5,0,0,0-1.5-1.5H41.75v-29h31v29Z" style="fill: #3a4185"/>
        <path d="M52.25,93.61a2,2,0,0,1-2-2V85h-10a2,2,0,0,1-2-2V51a2,2,0,0,1,2-2h34a2,2,0,0,1,2,2V83a2,2,0,0,1-2,2L63.07,85l-9.39,8A2,2,0,0,1,52.25,93.61ZM40.25,50a1,1,0,0,0-1,1V83a1,1,0,0,0,1,1h11v7.61a1,1,0,0,0,1.74.67L62.7,84h.18l11.36,0a1,1,0,0,0,1-1V51a1,1,0,0,0-1-1Zm13,38.74V83a1,1,0,0,0-1-1h-11V52h32V82H62.51a1.46,1.46,0,0,0-1,.39ZM42.25,81h10a2,2,0,0,1,2,2v3.7l6.62-5.1A2.43,2.43,0,0,1,62.51,81h9.74V53h-30Z" style="fill: #3a4185"/>
        <path d="M53.75,63a1.5,1.5,0,0,0,1.5-1.5,2.36,2.36,0,1,1,2.47,2.36h-.51A1.34,1.34,0,0,0,55.76,65c0,.4,0,4,0,4a1.5,1.5,0,0,0,3,0V66.71a5.36,5.36,0,1,0-6.5-5.24A1.5,1.5,0,0,0,53.75,63Z" style="fill: #3a4185"/>
        <path d="M57.25,71a2,2,0,0,1-2-2s0-3.63,0-4a1.83,1.83,0,0,1,2-1.63h.49a1.86,1.86,0,1,0-2-1.86,2,2,0,0,1-4,0,5.86,5.86,0,1,1,7.5,5.63V69A2,2,0,0,1,57.25,71Zm.36-12.39a2.86,2.86,0,0,1,.13,5.73h-.53c-.15,0-.88,0-1,.69,0,.34,0,4,0,4a1,1,0,0,0,2,0V66.31l.39-.09a4.86,4.86,0,1,0-5.89-4.75,1,1,0,0,0,2,0A2.87,2.87,0,0,1,57.61,58.61Z" style="fill: #3a4185"/>
        <circle cx="57.25" cy="75" r="2.5" style="fill: #3a4185"/>
        <path d="M57.25,78a3,3,0,1,1,3-3A3,3,0,0,1,57.25,78Zm0-5a2,2,0,1,0,2,2A2,2,0,0,0,57.25,73Z" style="fill: #3a4185"/>
        <circle cx="31.42" cy="17.76" r="15.5" style="fill: #3a4185"/>
        <path d="M31.42,33.76a16,16,0,1,1,16-16A16,16,0,0,1,31.42,33.76Zm0-31a15,15,0,1,0,15,15A15,15,0,0,0,31.42,2.76Z" style="fill: #3a4185"/>
        <path d="M40.59,69.26l-33.5.5L.92,67.26l7-18,12-8s7-2,8-2h8l4,2,14,10-13-1-2,7Z" style="fill: #3a4185"/>
        <path d="M7,70.26.28,67.54,7.51,48.93l12.27-8.15c.72-.21,7.1-2,8.14-2H36l4.11,2.05L55.67,51.9,41.29,50.79,39.43,57.3l1.73,12.46h-.57l-33.49.5ZM1.57,67l5.62,2.28L40,68.77l-1.6-11.54,2.14-7.49,11.62.89-12.54-9-3.83-1.91H27.92c-.67,0-5.1,1.19-7.79,2L8.33,49.59Z" style="fill: #3a4185"/>
        <g>
          <path d="M51.57,51.26h3.82A29.81,29.81,0,0,0,31.29,38.94a29.48,29.48,0,0,0-12.94,3,1.5,1.5,0,1,0,1.3,2.7,26.76,26.76,0,0,1,31.92,6.66Z" style="fill: #3a4185"/>
          <path d="M56.38,51.76h-5l-.15-.17a26.32,26.32,0,0,0-19.91-9.15A26,26,0,0,0,19.87,45a2,2,0,1,1-1.74-3.6,30,30,0,0,1,13.16-3A30.47,30.47,0,0,1,55.8,51Zm-4.58-1h2.59a29.46,29.46,0,0,0-23.1-11.32,29,29,0,0,0-12.72,2.91,1,1,0,1,0,.87,1.8,27,27,0,0,1,11.85-2.71A27.31,27.31,0,0,1,51.8,50.76Z" style="fill: #3a4185"/>
        </g>
        <g>
          <path d="M40.92,67.5H28.43a1.5,1.5,0,0,0,0,3h12.5Z" style="fill: #3a4185"/>
          <path d="M41.42,71h-13a2,2,0,0,1,0-4h13Zm-13-3a1,1,0,0,0,0,2h12V68Z" style="fill: #3a4185"/>
        </g>
      </g>
    </g>
  </g>
</svg>
