<svg xmlns="http://www.w3.org/2000/svg" viewBox="0 0 48 48">
  <title>ют</title>
  <g id="f6c3c8c9-26cd-44be-ae23-5d99c73061ea" data-name="Layer 2">
    <g id="6cfec250-43ef-4820-84b3-a66eb7d1299e" data-name="Layer 1">
      <g>
        <circle cx="24" cy="24" r="24" style="fill: #e14e42"/>
        <g>
          <path d="M33.52,23.3h-19A5.48,5.48,0,0,0,9,28.79v4.4a5.48,5.48,0,0,0,5.48,5.48h19A5.48,5.48,0,0,0,39,33.19v-4.4A5.48,5.48,0,0,0,33.52,23.3Zm-15,3.43H16.71v8.79H15V26.73H13.23v-1.5h5.25Zm5,8.79H22V34.7a3.23,3.23,0,0,1-.87.7,1.84,1.84,0,0,1-.88.24.94.94,0,0,1-.79-.34,1.64,1.64,0,0,1-.27-1V27.94h1.52v5.83a.65.65,0,0,0,.09.39.38.38,0,0,0,.31.12.87.87,0,0,0,.42-.16A2,2,0,0,0,22,33.7V27.94h1.52ZM29,34a1.89,1.89,0,0,1-.36,1.24,1.26,1.26,0,0,1-1,.43,1.81,1.81,0,0,1-.8-.17,2,2,0,0,1-.65-.51v.58H24.63V25.24h1.53v3.31a2.38,2.38,0,0,1,.65-.53,1.48,1.48,0,0,1,.7-.18,1.31,1.31,0,0,1,1.1.48A2.27,2.27,0,0,1,29,29.75Zm5.26-2h-2.9v1.43a1.65,1.65,0,0,0,.15.83.56.56,0,0,0,.52.23.63.63,0,0,0,.53-.2,1.65,1.65,0,0,0,.15-.87V33h1.56v.39a2.43,2.43,0,0,1-.57,1.76,2.26,2.26,0,0,1-1.7.59,2.09,2.09,0,0,1-1.61-.62,2.42,2.42,0,0,1-.59-1.72V30a2.13,2.13,0,0,1,.65-1.61,2.28,2.28,0,0,1,1.66-.62,2.13,2.13,0,0,1,1.6.58A2.28,2.28,0,0,1,34.25,30Z" style="fill: #fff"/>
          <path d="M32,29.08a.6.6,0,0,0-.52.21,1.12,1.12,0,0,0-.16.68v.77h1.34V30a1.13,1.13,0,0,0-.16-.68A.58.58,0,0,0,32,29.08Z" style="fill: #fff"/>
          <path d="M26.79,29.05a.76.76,0,0,0-.32.07,1.13,1.13,0,0,0-.31.23v4.73a1.33,1.33,0,0,0,.36.27.91.91,0,0,0,.37.08.49.49,0,0,0,.41-.16.83.83,0,0,0,.13-.52V29.83a.92.92,0,0,0-.16-.58A.59.59,0,0,0,26.79,29.05Z" style="fill: #fff"/>
          <polygon points="14.69 9.33 16.98 16.18 16.98 20.67 18.9 20.67 18.9 15.96 21.14 9.33 19.18 9.33 17.99 13.86 17.87 13.86 16.62 9.33 14.69 9.33" style="fill: #fff"/>
          <path d="M22,12.67a1.92,1.92,0,0,0-.69,1.55v4.34a2.22,2.22,0,0,0,.67,1.7,2.53,2.53,0,0,0,1.8.63,2.61,2.61,0,0,0,1.83-.61,2.19,2.19,0,0,0,.66-1.68V14.26a2,2,0,0,0-.68-1.57,2.52,2.52,0,0,0-1.74-.61A2.81,2.81,0,0,0,22,12.67Zm2.53,1.48v4.56a.7.7,0,0,1-.21.53.78.78,0,0,1-.55.19.68.68,0,0,1-.52-.19.74.74,0,0,1-.18-.53V14.15a.57.57,0,0,1,.19-.44.76.76,0,0,1,.51-.17.85.85,0,0,1,.55.17A.55.55,0,0,1,24.5,14.15Z" style="fill: #fff"/>
          <path d="M32.5,20.67V12.3H30.79v6.35a2.32,2.32,0,0,1-.53.45,1,1,0,0,1-.48.18.41.41,0,0,1-.35-.13.69.69,0,0,1-.11-.43V12.3H27.62v7a1.76,1.76,0,0,0,.3,1.12,1.08,1.08,0,0,0,.89.38,2.15,2.15,0,0,0,1-.27,3.62,3.62,0,0,0,1-.78v.93Z" style="fill: #fff"/>
        </g>
      </g>
    </g>
  </g>
</svg>
