<svg xmlns="http://www.w3.org/2000/svg" viewBox="0 0 21.42 19.07">
  <title>Баланс</title>
  <g id="d56b0dfb-3f9b-4a2b-bc6d-2489d620a8a7" data-name="Layer 2">
    <g id="d48d4bf6-3abd-4a6d-ae28-fac99ef99225" data-name="Layer 1">
      <path d="M21.42,14.47a13,13,0,0,0-1.2-4.65,13,13,0,0,0-2.66-4c-1.06-1-2.08-1.4-2.87-1.06h0l-.92.41V3h0c0-1.71-3-3-6.87-3S0,1.29,0,3H0V6.87a.35.35,0,0,0,0,.06A.36.36,0,0,0,0,7s0,.07,0,.1a.36.36,0,0,0,0,.06V11a.36.36,0,0,0,0,.06.36.36,0,0,0,0,.06s0,.09,0,.13a.37.37,0,0,0,0,.07v3.87a.29.29,0,0,1,0,.12c0,1.71,3,3,6.87,3a10.66,10.66,0,0,0,6-1.47C13.9,18.26,15,19.07,16,19.07a1.52,1.52,0,0,0,.63-.13l3.63-1.62h0C21.07,17,21.47,16,21.42,14.47ZM11.14,6.34l-.11,0c-.76.34-1.14,1.27-1.15,2.55a14.2,14.2,0,0,1-3,.31C3.26,9.26.74,8.06.74,7a.35.35,0,0,0,0-.06.36.36,0,0,0,0-.06V4.4C1.85,5.37,4.13,6,6.87,6s5-.63,6.13-1.6V5.51ZM.74,11.08a.36.36,0,0,0,0-.06V8.39c1.11,1,3.39,1.6,6.13,1.6a15.14,15.14,0,0,0,3-.29,12.54,12.54,0,0,0,.76,3.15,12.31,12.31,0,0,1-3.79.55c-3.61,0-6.13-1.19-6.13-2.26A.36.36,0,0,0,.74,11.08ZM6.87.74C10.49.74,13,1.93,13,3h0c0,1.07-2.53,2.26-6.13,2.26S.74,4.07.74,3,3.26.74,6.87.74Zm0,16.85C3.26,17.59.74,16.4.74,15.33a.29.29,0,0,1,0-.12V12.54c1.11,1,3.39,1.6,6.13,1.6a13,13,0,0,0,4.06-.6l.15.35a15.59,15.59,0,0,0,1.31,2.38A10,10,0,0,1,6.88,17.59Zm9.56.63-.1,0c-1,.43-3.09-1.38-4.57-4.68s-1.41-6.09-.44-6.52L13.7,6a5,5,0,0,0-.17,1.6,13,13,0,0,0,1.2,4.65,13,13,0,0,0,2.66,4,5,5,0,0,0,1.31.94ZM20,16.64h0c-.49.22-1.24-.12-2.07-.91A12.29,12.29,0,0,1,15.41,12a12.3,12.3,0,0,1-1.14-4.38c0-1.15.22-1.93.71-2.15a.79.79,0,0,1,.33-.07,2.88,2.88,0,0,1,1.74,1,12.29,12.29,0,0,1,2.5,3.77,12.28,12.28,0,0,1,1.14,4.37C20.72,15.64,20.46,16.42,20,16.64Z" style="fill: #fff"/>
    </g>
  </g>
</svg>
