<svg xmlns="http://www.w3.org/2000/svg" viewBox="0 0 68 83">
  <title>Журнал</title>
  <g id="a54aada9-5dce-4cf1-a571-669a9173281f" data-name="Layer 2">
    <g id="b6083138-b392-4b5a-a95b-c95702e2a4c1" data-name="Layer 1">
      <path d="M62,0H13A6,6,0,0,0,7,6v9H1.5a1.5,1.5,0,0,0,0,3H7v9H1.5a1.5,1.5,0,0,0,0,3H7v9H1.5a1.5,1.5,0,0,0,0,3H7V52H1.5a1.5,1.5,0,0,0,0,3H7V65H1.5a1.5,1.5,0,0,0,0,3H7v9a6,6,0,0,0,6,6H62a6,6,0,0,0,6-6V6A6,6,0,0,0,62,0ZM10,77V68h4.5a1.5,1.5,0,0,0,0-3H10V55h4.5a1.5,1.5,0,0,0,0-3H10V42h4.5a1.5,1.5,0,0,0,0-3H10V30h4.5a1.5,1.5,0,0,0,0-3H10V18h4.5a1.5,1.5,0,0,0,0-3H10V6a3,3,0,0,1,3-3H51V80H13A3,3,0,0,1,10,77Zm55,0a3,3,0,0,1-3,3H54V3h8a3,3,0,0,1,3,3Z" style="fill: #3a4185"/>
    </g>
  </g>
</svg>
