<svg xmlns="http://www.w3.org/2000/svg" viewBox="0 0 93.73 89.74">
  <title>Избранное</title>
  <g id="238e8232-b267-49b2-8aa6-bf02ce1286c5" data-name="Layer 2">
    <g id="23e7fd83-b1c9-41e2-a34a-b7a335bc1b0f" data-name="Layer 1">
      <g>
        <g>
          <path d="M93,34a4.4,4.4,0,0,0-3.57-3L62.76,27.14,50.84,3a4.4,4.4,0,0,0-4-2.47h0A4.4,4.4,0,0,0,42.9,3L31,27.14,4.3,31a4.43,4.43,0,0,0-2.45,7.55l19.3,18.81L16.57,84.06a4.42,4.42,0,0,0,6.36,4.7l24.49-12.4,23.3,12.25a4.43,4.43,0,0,0,6.43-4.67L72.59,57.38l19.3-18.81A4.4,4.4,0,0,0,93,34ZM89.8,36.42,69.37,56.33l4.82,28.12A1.43,1.43,0,0,1,72.12,86L47.45,73,21.58,86.08a1.43,1.43,0,0,1-2.05-1.51l4.84-28.23L3.94,36.42A1.43,1.43,0,0,1,4.73,34L33,29.88,45.59,4.3a1.4,1.4,0,0,1,1.28-.8h0a1.4,1.4,0,0,1,1.28.8L60.77,29.88,89,34a1.43,1.43,0,0,1,.79,2.43Z" style="fill: #fff"/>
          <path d="M20.93,89.74A4.94,4.94,0,0,1,16.07,84L20.6,57.55,1.49,38.92a4.93,4.93,0,0,1,2.73-8.41l26.41-3.84L42.45,2.75a4.93,4.93,0,0,1,8.84,0L63.1,26.68l26.41,3.84a4.9,4.9,0,0,1,4,3.35h0a4.9,4.9,0,0,1-1.25,5.05L73.13,57.55l4.51,26.31a4.93,4.93,0,0,1-7.15,5.19L47.42,76.92,23.16,89.2A5,5,0,0,1,20.93,89.74ZM46.87,1a3.91,3.91,0,0,0-3.52,2.19l-12,24.4L4.37,31.51a3.93,3.93,0,0,0-2.18,6.7l19.49,19L17.06,84.14A3.91,3.91,0,0,0,18.6,88a4,4,0,0,0,4.11.35L47.42,75.8,71,88.17A3.93,3.93,0,0,0,76.65,84L72.05,57.2l19.49-19a3.91,3.91,0,0,0,1-4h0a3.9,3.9,0,0,0-3.17-2.67L62.43,27.59l-12-24.4A3.9,3.9,0,0,0,46.87,1ZM20.92,86.74A1.94,1.94,0,0,1,19,84.48l4.8-28L3.59,36.78a1.93,1.93,0,0,1,1.07-3.29l28-4.07L45.14,4.08a1.93,1.93,0,0,1,3.46,0L61.1,29.42l28,4.07a1.93,1.93,0,0,1,1.07,3.29L69.9,56.51l4.78,27.86a1.93,1.93,0,0,1-2.8,2L47.44,73.55l-25.64,13A2,2,0,0,1,20.92,86.74ZM46.87,4a.9.9,0,0,0-.83.52L33.29,30.34,4.8,34.48a.93.93,0,0,0-.51,1.58L24.9,56.16,20,84.65a.93.93,0,0,0,1.33,1l26.1-13.21,24.9,13.09a.93.93,0,0,0,1.35-1L68.83,56.16l20.62-20.1a.93.93,0,0,0-.51-1.58L60.44,30.34,47.7,4.52A.9.9,0,0,0,46.87,4Z" style="fill: #fff"/>
        </g>
        <g>
          <polygon points="1.65 33.09 31.15 29.09 46.15 2.09 62.4 29.84 90.15 33.09 91.15 35.09 72.15 56.09 75.15 85.09 73.15 88.09 48.15 75.09 23.15 86.09 20.15 86.09 19.15 84.09 22.15 61.09 24.15 56.09 19.15 52.09 4.15 40.09 1.65 33.09" style="fill: #fff"/>
          <path d="M73.31,88.74,48.13,75.64,23.25,86.59H19.84l-1.21-2.41L21.68,60.9l1.86-4.66L3.72,40.39,1,32.68l29.86-4L46.14,1.08,62.7,29.37l27.77,3.25,1.27,2.55L72.67,56.26l3,29ZM48.16,74.54,73,87.44,74.63,85l-3-29,.15-.17L90.55,35l-.73-1.45L62.09,30.31,46.16,3.1,31.46,29.55l-29.14,4,2.25,6.29L24.75,55.93l-2.11,5.29L19.66,84l.79,1.59H23Z" style="fill: #fff"/>
        </g>
      </g>
    </g>
  </g>
</svg>
