<svg xmlns="http://www.w3.org/2000/svg" viewBox="0 0 131.33 131.19">
  <title>Интернет</title>
  <g id="b2cc8281-fb50-49b8-80df-23b54976e403" data-name="Layer 2">
    <g id="3a0ac291-eb03-41ef-a8d2-c49fa4287765" data-name="Layer 1">
      <g id="7f6282c1-aa9b-460f-9963-cd92af15e1d2" data-name="&lt;Group&gt;">
        <g id="adc9eba7-4e25-4f51-b247-6f9216f2a9f8" data-name="&lt;Group&gt;">
          <path d="M62.18,130.68l6.26,0A65.15,65.15,0,0,0,68.43.52l-6.2,0-.06,0a65.16,65.16,0,0,0,0,130.13ZM22.83,107.73a72.82,72.82,0,0,1,13.33-7.66,78,78,0,0,0,18.55,24.64A60.29,60.29,0,0,1,22.83,107.73Zm40.32,17.39a74.49,74.49,0,0,1-22.3-26.93,75.26,75.26,0,0,1,22.3-4.43Zm0-36.4a80.31,80.31,0,0,0-24.34,4.85,74.28,74.28,0,0,1-5.2-23.3H63.14Zm0-23.5-29.7,0a75.11,75.11,0,0,1,4.06-24.1,79.15,79.15,0,0,0,25.64,5.43Zm12.62,59.65a77.86,77.86,0,0,0,19.18-25.7,73,73,0,0,1,14.34,7.78A60.1,60.1,0,0,1,75.76,124.87Zm36.85-21.73a77.73,77.73,0,0,0-15.73-8.61,79.55,79.55,0,0,0,5.2-24.29H125.6A59.56,59.56,0,0,1,112.61,103.13Zm1.88-72.57a59.53,59.53,0,0,1,11.3,34.62H102.23a80.23,80.23,0,0,0-4.12-25.07A79.45,79.45,0,0,0,114.49,30.56Zm-3.11-4a74.44,74.44,0,0,1-15,8.79,78.81,78.81,0,0,0-20.61-29A59.83,59.83,0,0,1,111.38,26.6Zm-43.2-20a73.94,73.94,0,0,1,23.5,30.63,74.08,74.08,0,0,1-23.5,4.33Zm0,40A79.15,79.15,0,0,0,93.41,42,75.2,75.2,0,0,1,97.19,65.2l-29,0Zm0,23.63,28.85,0a74.47,74.47,0,0,1-4.89,22.54,80.39,80.39,0,0,0-24-4.12Zm0,23.44a75.35,75.35,0,0,1,22,3.73,74.36,74.36,0,0,1-22,27.17Zm-5-87.59V41.52a74.1,74.1,0,0,1-23.83-5.1A74.08,74.08,0,0,1,63.14,6.1Zm-8.43.4a78.93,78.93,0,0,0-20,27.91,74.18,74.18,0,0,1-14-8.67A60,60,0,0,1,54.71,6.5ZM17.53,29.64a79.26,79.26,0,0,0,15.33,9.48,80.15,80.15,0,0,0-4.45,26.11H5.54A59.46,59.46,0,0,1,17.53,29.64ZM5.73,70.28H28.56a79.34,79.34,0,0,0,5.57,25.19A78,78,0,0,0,19.43,104,59.46,59.46,0,0,1,5.73,70.28Z" style="fill: #3a4185"/>
          <path d="M68.46,131.19l-6.31,0A65.66,65.66,0,0,1,62,0h0l.22,0,6.2,0a65.64,65.64,0,0,1,0,131.17Zm-6.27-1,6.25,0A64.65,64.65,0,0,0,68.41,1L62.36,1,62.2,1a64.66,64.66,0,0,0,0,129.14Zm1.45-4.06-.8-.6A75.17,75.17,0,0,1,40.39,98.4l-.24-.5.52-.19a75.81,75.81,0,0,1,22.45-4.46l.52,0ZM41.54,98.47a74.15,74.15,0,0,0,21.1,25.64V94.28A74.82,74.82,0,0,0,41.54,98.47Zm32.58,27.18,1.31-1.16A77.44,77.44,0,0,0,94.48,99l.2-.43.44.18a73.59,73.59,0,0,1,14.44,7.83l.48.33-.4.42a61,61,0,0,1-33.79,18.07ZM95.19,99.81A78.3,78.3,0,0,1,77.4,124.05a60,60,0,0,0,31.11-17A72.58,72.58,0,0,0,95.19,99.81Zm-27.51,25.8V93.18h.51a75.91,75.91,0,0,1,22.14,3.76l.54.18-.24.51A75.07,75.07,0,0,1,68.49,125Zm1-31.41v29.37a74.07,74.07,0,0,0,20.8-25.85A74.88,74.88,0,0,0,68.68,94.2ZM56.38,125.53l-1.76-.33a61.19,61.19,0,0,1-32.15-17.12l-.41-.41.47-.34A73.39,73.39,0,0,1,36,99.61l.44-.2.21.44A77.52,77.52,0,0,0,55,124.34ZM23.59,107.8A60.27,60.27,0,0,0,53,123.86a78.41,78.41,0,0,1-17.12-23.14A72.39,72.39,0,0,0,23.59,107.8Zm-4.25-3.14-.3-.36a60,60,0,0,1-13.81-34l0-.54H29l0,.47a78.91,78.91,0,0,0,5.54,25l.18.45-.44.2a77.51,77.51,0,0,0-14.61,8.46ZM6.27,70.78A59,59,0,0,0,19.52,103.3a78.5,78.5,0,0,1,14-8.1,79.87,79.87,0,0,1-5.4-24.43Zm106.43,33-.38-.27A77.33,77.33,0,0,0,96.69,95l-.46-.19.18-.46a79.1,79.1,0,0,0,5.17-24.14l0-.47h24.53l0,.54A60.16,60.16,0,0,1,113,103.45ZM97.52,94.24a78.36,78.36,0,0,1,15,8.21,59.15,59.15,0,0,0,12.55-31.73H102.55A80.1,80.1,0,0,1,97.52,94.24Zm-59,0-.18-.45A74.82,74.82,0,0,1,33.11,70.3l0-.53,30.57,0V89.2l-.48,0A79.87,79.87,0,0,0,39,94ZM34.14,70.77a73.82,73.82,0,0,0,5,22.16,80.83,80.83,0,0,1,23.55-4.69V70.75ZM92.44,93.4,92,93.25a80,80,0,0,0-23.82-4.09h-.49V69.75l29.88,0,0,.53A75,75,0,0,1,92.61,93ZM68.68,88.17a80.92,80.92,0,0,1,23.17,4A74,74,0,0,0,96.5,70.74H68.68ZM5,65.74v-.5a60,60,0,0,1,12.09-35.9l.31-.41.4.32a78.85,78.85,0,0,0,15.23,9.42l.41.19-.15.43a79.72,79.72,0,0,0-4.42,26v.5ZM17.62,30.35A59,59,0,0,0,6,64.74H27.91a80.68,80.68,0,0,1,4.33-25.35A79.83,79.83,0,0,1,17.62,30.35ZM32.94,65.73v-.5A75.65,75.65,0,0,1,37,41l.17-.49.49.19a78.7,78.7,0,0,0,25.48,5.4l.48,0V65.71Zm4.87-23.95a74.63,74.63,0,0,0-3.86,22.95l28.69,0V47A79.69,79.69,0,0,1,37.81,41.78ZM67.68,65.71V46.13h.49a78.7,78.7,0,0,0,25.07-4.62l.48-.17.16.49a75.73,75.73,0,0,1,3.8,23.37v.5Zm1-18.6v17.6l28,0A74.72,74.72,0,0,0,93.1,42.62,79.71,79.71,0,0,1,68.68,47.11ZM101.74,65.7v-.5a79.74,79.74,0,0,0-4.1-24.92l-.15-.44.42-.18a79,79,0,0,0,16.27-9.5l.41-.31.3.42a60.11,60.11,0,0,1,11.39,34.91v.5Zm-3-25.3a80.73,80.73,0,0,1,4,24.3h22.55a59.1,59.1,0,0,0-10.9-33.41A80,80,0,0,1,98.73,40.4Zm-31,1.69V5.61l.8.62A74.61,74.61,0,0,1,92.14,37.06l.2.48-.49.18a74.63,74.63,0,0,1-23.66,4.35Zm1-34.44V41.06A73.61,73.61,0,0,0,91,37,73.58,73.58,0,0,0,68.68,7.65ZM63.64,42l-.52,0a74.65,74.65,0,0,1-24-5.13l-.48-.19.2-.47a74.72,74.72,0,0,1,24-30.53l.8-.6ZM40,36.14A73.65,73.65,0,0,0,62.64,41V7.11A73.71,73.71,0,0,0,40,36.14Zm56.12-.09-.19-.48A78.61,78.61,0,0,0,75.42,6.72l-1.3-1.16,1.71.29a60.66,60.66,0,0,1,35.92,20.42l.35.4-.42.32a75,75,0,0,1-15.11,8.85ZM77.39,7.16A79.61,79.61,0,0,1,96.63,34.72a74,74,0,0,0,14-8.2A59.68,59.68,0,0,0,77.39,7.16ZM34.95,35.09l-.47-.22a74.8,74.8,0,0,1-14.07-8.73L20,25.81l.35-.4A60.88,60.88,0,0,1,54.62,6l1.75-.32L55,6.87A78.72,78.72,0,0,0,35.15,34.6Zm-13.5-9.41a73.78,73.78,0,0,0,13,8.06A79.71,79.71,0,0,1,53.05,7.35,59.94,59.94,0,0,0,21.44,25.68Z" style="fill: #3a4185"/>
        </g>
      </g>
    </g>
  </g>
</svg>
