<svg xmlns="http://www.w3.org/2000/svg" viewBox="0 0 47.58 69.49">
  <title>Карта</title>
  <g id="e114ac9a-a550-4c9a-836d-269fff274e28" data-name="Layer 2">
    <g id="fd59358b-af5b-4c5f-8a3c-0e13255d3297" data-name="Layer 1">
      <g>
        <circle cx="23.75" cy="23.79" r="6.74" style="fill: #3a4185"/>
        <path d="M23.79,0A23.76,23.76,0,0,0,3.65,36.41a1.51,1.51,0,0,1,.13.27l19.6,32.8,4-6.43c.29-.48.34-.56.58-.93L43.8,36.66a1.44,1.44,0,0,1,.12-.25A23.76,23.76,0,0,0,23.79,0Zm0,33.53a9.74,9.74,0,1,1,9.74-9.74A9.75,9.75,0,0,1,23.75,33.53Z" style="fill: #3a4185"/>
      </g>
    </g>
  </g>
</svg>
