<svg xmlns="http://www.w3.org/2000/svg" viewBox="0 0 88.2 87.32">
  <title>Книга</title>
  <g id="bab3ea1b-6bc7-4bbb-96f6-6847709c944b" data-name="Layer 2">
    <g id="e2b8f4d4-e803-4ce7-b29c-ebc5dc7a7758" data-name="Layer 1">
      <g>
        <path d="M87.4,53.13l-7.4-5v-15l7.4-4.9a1.52,1.52,0,0,0,.7-1.2,1.39,1.39,0,0,0-.7-1.2L49.3.23a1.72,1.72,0,0,0-1.7,0L.6,31.63a.78.78,0,0,0-.4.4v.1a1.2,1.2,0,0,0-.2.8v27.5a1.39,1.39,0,0,0,.7,1.2L38.8,87a1.33,1.33,0,0,0,.8.3,1.14,1.14,0,0,0,.8-.3l47.1-31.4a1.52,1.52,0,0,0,.7-1.2A1.74,1.74,0,0,0,87.4,53.13ZM48.5,3.33l35.4,23.6-5.8,3.8a2.18,2.18,0,0,0-.8.5L39.5,56.43,11.1,37.52c-.1-.1-.2-.1-.2-.2l-6.8-4.5ZM11.6,41.52l27,18a1.72,1.72,0,0,0,1.7,0L77,35v12.3L39.7,71.92l-28.1-18V41.52Zm27.9,42.4L2.9,59.53V35.73l5.8,3.8v15.2A1.71,1.71,0,0,0,9.4,56L39,75a1.08,1.08,0,0,0,.8.2,1.88,1.88,0,0,0,.8-.2L78,50.43l5.9,4Z" style="fill: #3a4185"/>
        <path d="M42,17l17.8,12.2a1.6,1.6,0,0,0,.8.3,1.31,1.31,0,0,0,1.2-.7,1.48,1.48,0,0,0-.4-2.1L43.7,14.52A1.51,1.51,0,0,0,42,17Z" style="fill: #3a4185"/>
      </g>
    </g>
  </g>
</svg>
