<svg xmlns="http://www.w3.org/2000/svg" viewBox="0 0 69 70">
  <title>Копировать</title>
  <g id="540c2b0f-9b91-4ce8-962c-8d3bc1dea4c5" data-name="Layer 2">
    <g id="cc3d7a3d-040b-4106-b50d-e32cf861853e" data-name="Layer 1">
      <g>
        <path d="M67.5,33A1.5,1.5,0,0,0,66,34.5V52H17V3H34.5a1.5,1.5,0,1,0,0-3h-19A1.5,1.5,0,0,0,14,1.5V15H1.5A1.5,1.5,0,0,0,0,16.5v52A1.5,1.5,0,0,0,1.5,70h52A1.5,1.5,0,0,0,55,68.5V55H67.5A1.5,1.5,0,0,0,69,53.5v-19A1.5,1.5,0,0,0,67.5,33ZM52,67H3V18H14V53.5A1.5,1.5,0,0,0,15.5,55H52Z" style="fill: #3a4185"/>
        <path d="M1.5,37A1.5,1.5,0,0,0,3,35.5V18H52V67H34.5a1.5,1.5,0,0,0,0,3h19A1.5,1.5,0,0,0,55,68.5V55H67.5A1.5,1.5,0,0,0,69,53.5V1.5A1.5,1.5,0,0,0,67.5,0h-52A1.5,1.5,0,0,0,14,1.5V15H1.5A1.5,1.5,0,0,0,0,16.5v19A1.5,1.5,0,0,0,1.5,37ZM17,3H66V52H55V16.5A1.5,1.5,0,0,0,53.5,15H17Z" style="fill: #3a4185"/>
      </g>
    </g>
  </g>
</svg>
