<svg xmlns="http://www.w3.org/2000/svg" viewBox="0 0 65.98 75.41">
  <title>Новость</title>
  <g id="9d0e62c2-ba9c-4f44-9a8e-e822ca87e674" data-name="Layer 2">
    <g id="a794dd27-8818-4fba-ba04-f6e53af6c0f8" data-name="Layer 1">
      <g>
        <path d="M64.9,73.37a1.48,1.48,0,0,0,.08-.46V34a1.62,1.62,0,0,0,0-.18s0-.08,0-.11a1.47,1.47,0,0,0,0-.14h0l0-.06,0-.07-.06-.1a1.5,1.5,0,0,0-.09-.16v0l-6.27-8.8V18.16s0,0,0-.07a1.49,1.49,0,0,0-.39-1h0L58,17,44,1.5h0A1.49,1.49,0,0,0,42.86,1H9.06a1.5,1.5,0,0,0-1.5,1.5V24.32L1.28,33.11h0a1.55,1.55,0,0,0-.1.17l0,.09,0,.07,0,.06h0s0,.09,0,.13,0,.08,0,.12A1.51,1.51,0,0,0,1,34v39a1.48,1.48,0,0,0,.08.47l0,.06a1.5,1.5,0,0,0,.28.46l0,0,0,0,.16.14.08.06.2.11.06,0a1.5,1.5,0,0,0,.59.12h61a1.48,1.48,0,0,0,.59-.12l.08,0,.18-.1.09-.07.14-.13,0,0,0,0a1.5,1.5,0,0,0,.28-.46ZM4,37.38l17.51,16L4,69.49Zm19.74,18L32,62.93a1.5,1.5,0,0,0,2,0l8.14-7.43L59.61,71.41H6.34Zm20.63-1.94L62,37.38V69.52Zm0-47.06,9.2,10.18h-9.2ZM61.49,33.77l-3.06,2.79V29.48ZM41.36,4V18.09a1.5,1.5,0,0,0,1.5,1.5H55.43V39.3l-14.22,13a1.52,1.52,0,0,0-.21.15s0,.06,0,.08L33,59.8,10.56,39.31V4ZM7.56,36.57l-3.06-2.8,3.06-4.29Z" style="fill: #fff;stroke: #fff;stroke-miterlimit: 10;stroke-width: 2px"/>
        <path d="M24.59,36.83l-1.19,7a2.33,2.33,0,0,0,2.29,2.73,2.36,2.36,0,0,0,1.05-.25L33.14,43l6.07,3.19a2.32,2.32,0,0,0,3.38-2.45L41.4,36.83l5-4.91a2.32,2.32,0,0,0-1.28-4l-7-1-3.11-6.3A2.31,2.31,0,0,0,33,19.34h0a2.29,2.29,0,0,0-2.07,1.31l-3.11,6.3-7,1a2.32,2.32,0,0,0-1.29,4Zm4.42-7A1.5,1.5,0,0,0,30.14,29L33,23.2,35.85,29A1.5,1.5,0,0,0,37,29.8l6.38.93-4.62,4.51a1.5,1.5,0,0,0-.43,1.33l1.09,6.36L33.86,40a1.49,1.49,0,0,0-1.38,0l-5.9,3,1.1-6.42a1.5,1.5,0,0,0-.43-1.33l-4.62-4.51Z" style="fill: #fff;stroke: #fff;stroke-miterlimit: 10;stroke-width: 2px"/>
      </g>
    </g>
  </g>
</svg>
