<svg xmlns="http://www.w3.org/2000/svg" viewBox="0 0 10.26 7.81">
  <title>ะะบ</title>
  <g id="a8718dc4-9255-4084-a179-c310b7c4f96f" data-name="Layer 2">
    <g id="b3a58ec2-5c23-4c64-a270-d8b923644999" data-name="Layer 1">
      <g>
        <g>
          <path d="M3.79,7.34a.18.18,0,0,1-.13-.05L.52,4.15a.18.18,0,0,1,0-.26.18.18,0,0,1,.26,0l3,3L9.47.53a.18.18,0,0,1,.27.24L3.93,7.28a.18.18,0,0,1-.13.06ZM.65,3.93.59,4a.09.09,0,0,0,0,.12L3.73,7.23l.06,0v0a.09.09,0,0,0,.07,0L9.67.71A.09.09,0,1,0,9.54.59L3.79,7,.71,4Z" style="fill: #fff"/>
          <path d="M3.8,7.72h0a.56.56,0,0,1-.39-.16L.25,4.41A.56.56,0,0,1,1,3.63L3.77,6.35,9.19.28A.56.56,0,0,1,10,1L4.21,7.53a.56.56,0,0,1-.4.19Z" style="fill: #fff"/>
        </g>
        <g>
          <path d="M3.79,7.44h0a.27.27,0,0,1-.19-.08L.45,4.21a.27.27,0,0,1,0-.39.29.29,0,0,1,.39,0L3.78,6.77,9.4.47a.27.27,0,0,1,.41.36L4,7.35a.27.27,0,0,1-.19.09ZM.65,3.84a.18.18,0,0,0-.13.31L3.66,7.29a.18.18,0,0,0,.13.05h0a.18.18,0,0,0,.12-.06L9.74.77A.18.18,0,1,0,9.47.53L3.78,6.9l-3-3A.18.18,0,0,0,.65,3.84ZM3.84,7.3h0Zm0,0a.09.09,0,0,1-.06,0L.59,4.08a.09.09,0,0,1,.06-.15L.71,4,3.79,7,9.54.59a.09.09,0,0,1,.06,0l.06,0a.09.09,0,0,1,0,.12L3.86,7.22A.09.09,0,0,1,3.79,7.25Z" style="fill: #fff"/>
          <path d="M3.79,7.81a.65.65,0,0,1-.46-.19L.19,4.48a.65.65,0,0,1,0-.92.66.66,0,0,1,.92,0L3.76,6.22l5.36-6a.65.65,0,1,1,1,.86L4.27,7.59l-.06.06h0a.65.65,0,0,1-.37.14Z" style="fill: #fff"/>
        </g>
      </g>
    </g>
  </g>
</svg>
