<svg xmlns="http://www.w3.org/2000/svg" viewBox="0 0 69 70">
  <title>Перейти на страницу</title>
  <g id="53529525-4c2b-40d3-9cd3-4a6a6b9e82c0" data-name="Layer 2">
    <g id="ee391305-a632-44be-bbef-d65ee00d1d67" data-name="Layer 1">
      <g>
        <path d="M67.5,33A1.5,1.5,0,0,0,66,34.5V52H17V3H34.5a1.5,1.5,0,1,0,0-3h-19A1.5,1.5,0,0,0,14,1.5V15H1.5A1.5,1.5,0,0,0,0,16.5v52A1.5,1.5,0,0,0,1.5,70h52A1.5,1.5,0,0,0,55,68.5V55H67.5A1.5,1.5,0,0,0,69,53.5v-19A1.5,1.5,0,0,0,67.5,33ZM52,67H3V18H14V53.5A1.5,1.5,0,0,0,15.5,55H52Z" style="fill: #3a4185"/>
        <path d="M67.5,0h-19a1.5,1.5,0,1,0,0,3H63.88L39.44,27.44a1.5,1.5,0,0,0,2.12,2.12L66,5.12V20.5a1.5,1.5,0,0,0,3,0V1.5A1.5,1.5,0,0,0,67.5,0Z" style="fill: #3a4185"/>
      </g>
    </g>
  </g>
</svg>
