<svg xmlns="http://www.w3.org/2000/svg" viewBox="0 0 12.2 21.15">
  <title>Подсказка</title>
  <g id="e1fcb5b1-3c4a-4a20-a183-b9fcbff6f082" data-name="Layer 2">
    <g id="abd04001-1803-4a70-bb7f-6d8f9117e35f" data-name="Layer 1">
      <g>
        <path d="M6,19.31H6a.67.67,0,0,0,0,1.34H6a.67.67,0,0,0,0-1.34Z" style="fill: #fff;stroke: #fff;stroke-miterlimit: 10"/>
        <path d="M6.15.5H6.1A5.58,5.58,0,0,0,.5,6a.34.34,0,0,0,.33.34h0A.34.34,0,0,0,1.17,6,4.91,4.91,0,0,1,6.1,1.17h0A4.91,4.91,0,0,1,11,6.11a5.07,5.07,0,0,1-2.86,4.47,4.19,4.19,0,0,0-2.59,3.9l0,2.7a.34.34,0,0,0,.33.34h0a.34.34,0,0,0,.34-.33l0-2.7a3.56,3.56,0,0,1,2.21-3.3,5.75,5.75,0,0,0,3.24-5.07A5.58,5.58,0,0,0,6.15.5Z" style="fill: #fff;stroke: #fff;stroke-miterlimit: 10"/>
      </g>
    </g>
  </g>
</svg>
