<svg xmlns="http://www.w3.org/2000/svg" viewBox="0 0 4.78 32.5">
  <title>Предупреждение</title>
  <g id="93493cd7-814a-44fc-8b9d-b9cdd0a5f661" data-name="Layer 2">
    <g id="ed6e8862-b618-40d8-acf7-fb4f850038e5" data-name="Layer 1">
      <path d="M0,29.67a2.54,2.54,0,0,1,2.37-2.78,2.55,2.55,0,0,1,2.41,2.78c0,1.73-1,2.83-2.41,2.83S0,31.4,0,29.67ZM4.61,1.44c0,.77-.09,1.87-.3,3.84-.55,5.47-.85,11-1.23,17.19a1.21,1.21,0,0,1-1.48,0C1.23,16.32,1,10.75.38,5.28c-.17-2-.3-3.07-.3-3.84C.08.43.8,0,2.33,0S4.61.43,4.61,1.44Z" style="fill: #f27e00"/>
    </g>
  </g>
</svg>
