<svg xmlns="http://www.w3.org/2000/svg" viewBox="0 0 47.5 67.65">
  <title>Редактировать</title>
  <g id="67d247d1-90a4-4ce0-9d10-f6108d600298" data-name="Layer 2">
    <g id="8e25d1cc-d0d6-49b5-92e3-e4c58587c795" data-name="Layer 1">
      <path d="M47.47,6.16a1.5,1.5,0,0,0-.64-1L39.3.25A1.51,1.51,0,0,0,38.17,0a1.5,1.5,0,0,0-.95.64L31.71,9.05a1.52,1.52,0,0,0-.14.27L2.4,53.58a1.52,1.52,0,0,0-.15.3,1.48,1.48,0,0,0-.34.72L0,65.9a1.5,1.5,0,0,0,2.34,1.48l9.39-6.56A1.5,1.5,0,0,0,12,60.6a1.48,1.48,0,0,0,.43-.42L41.61,15.91a1.54,1.54,0,0,0,.14-.28l5.5-8.34A1.5,1.5,0,0,0,47.47,6.16ZM4.58,56.81l3.94,2.6-5,3.46Zm6.17.47L5.73,54,33.26,12.2l5,3.31ZM39.9,13l-5-3.31,4-6.1,5,3.31Z" style="fill: #3a4185"/>
    </g>
  </g>
</svg>
