<svg xmlns="http://www.w3.org/2000/svg" viewBox="0 0 69 80">
  <title>Скачать</title>
  <g id="bad62052-fac7-4a30-bf37-15fdbe6dd2b7" data-name="Layer 2">
    <g id="e41d611e-eb4d-4799-919f-325c6b42f9f9" data-name="Layer 1">
      <g>
        <path d="M67.5,57A1.5,1.5,0,0,0,66,58.5V77H3V58.5a1.5,1.5,0,0,0-3,0v20A1.5,1.5,0,0,0,1.5,80h66A1.5,1.5,0,0,0,69,78.5v-20A1.5,1.5,0,0,0,67.5,57Z" style="fill: #3a4185"/>
        <path d="M33.44,62.56a1.5,1.5,0,0,0,2.12,0l13-13a1.5,1.5,0,0,0-2.12-2.12L36,57.88V1.5a1.5,1.5,0,0,0-3,0V57.88L22.56,47.44a1.5,1.5,0,0,0-2.12,2.12Z" style="fill: #3a4185"/>
      </g>
    </g>
  </g>
</svg>
