<svg xmlns="http://www.w3.org/2000/svg" viewBox="0 0 88.21 58.13">
  <title>Сообщение</title>
  <g id="66a932f6-f1b4-4b1a-b4f1-b520865f8082" data-name="Layer 2">
    <g id="684988f0-8167-4d16-8ee9-a66972c4a46c" data-name="Layer 1">
      <g>
        <path d="M87.13,56.08a1.48,1.48,0,0,0,.08-.46V2.5A1.47,1.47,0,0,0,87.13,2l0-.06a1.49,1.49,0,0,0-.28-.46l0,0h0a1.5,1.5,0,0,0-.44-.32l0,0A1.48,1.48,0,0,0,85.81,1H2.4a1.5,1.5,0,0,0-.52.13h0a1.48,1.48,0,0,0-.45.33h0l0,0A1.5,1.5,0,0,0,1.1,2l0,.06A1.47,1.47,0,0,0,1,2.5V55.63a1.48,1.48,0,0,0,.08.47l0,.06a1.5,1.5,0,0,0,.28.46l0,0,0,0,.16.14.07.06.21.12.05,0a1.5,1.5,0,0,0,.59.12H85.7a1.48,1.48,0,0,0,.59-.12l.08,0,.18-.1.09-.07.14-.13,0,0,0,0a1.5,1.5,0,0,0,.28-.46ZM4,5.9,29.25,29,4,52.21ZM55.75,27.83a1.43,1.43,0,0,0-.3.22s0,.08-.07.12L44.1,38.47,6.37,4H81.84ZM31.47,31,43.09,41.61a1.5,1.5,0,0,0,2,0L56.59,31.12l25.24,23H6.35Zm27.34-1.9L84.21,5.9V52.23Z" style="fill: #3a4185"/>
        <path d="M85.7,58.13H2.5a2.48,2.48,0,0,1-1-.2l-.15-.08a1.73,1.73,0,0,1-.29-.17l-.13-.1-.19-.16-.21-.23a2.47,2.47,0,0,1-.38-.68l0-.11A2.42,2.42,0,0,1,0,55.63V2.5a2.44,2.44,0,0,1,.13-.77l.05-.15A2.32,2.32,0,0,1,.53,1l0-.08L.74.73A2.42,2.42,0,0,1,1.37.27L1.51.21A2.43,2.43,0,0,1,2.34,0H2.5L85.91,0a2.42,2.42,0,0,1,.82.21l.12.06a2.56,2.56,0,0,1,.57.4l.27.3a2.46,2.46,0,0,1,.36.64l0,.11a2.41,2.41,0,0,1,.13.76V55.63a2.47,2.47,0,0,1-.12.76l-.06.17a2.33,2.33,0,0,1-.34.59l-.21.25-.2.17-.14.11a2.54,2.54,0,0,1-.3.17l-.13.07A2.47,2.47,0,0,1,85.7,58.13ZM2.27,56.07a.56.56,0,0,0,.23.05H85.7a.49.49,0,0,0,.19,0l.19-.14a.5.5,0,0,0,.09-.15l1,.29-1-.31a.55.55,0,0,0,0-.15V2.5a.5.5,0,0,0,0-.15.48.48,0,0,0-.1-.17l0,0a.5.5,0,0,0-.13-.09l0,0-.13,0H2.47L2.34,2l-.11,0-.08.07,0,0A.48.48,0,0,0,2,2.32.61.61,0,0,0,2,2.5V55.63a.54.54,0,0,0,0,.15.48.48,0,0,0,.1.17l.14.12ZM85.6,2h0ZM84.41,55.13H3.78L31.47,29.64l12.3,11.23a.45.45,0,0,0,.67,0l12.15-11.1Zm-75.51-2H79.25L56.59,32.48l-10.8,9.87a2.56,2.56,0,0,1-3.37,0l-10.94-10Zm76.3,1.37L57.33,29.09,85.21,3.63ZM60.3,29.09,83.21,50V8.17ZM3,54.49V3.63L30.73,29ZM5,8.17V49.93L27.77,29ZM44.1,39.82,3.79,3H84.42L56.21,28.72l0,.06-.12.13ZM8.94,5,44.1,37.11l10.48-9.57a1.18,1.18,0,0,1,.13-.16,1.94,1.94,0,0,1,.43-.34L79.26,5Z" style="fill: #3a4185"/>
      </g>
    </g>
  </g>
</svg>
