<svg xmlns="http://www.w3.org/2000/svg" viewBox="0 0 4.78 32.5">
  <title>Статус</title>
  <g id="a0d414f6-475e-4466-9351-1f8e282c797e" data-name="Layer 2">
    <g id="04397235-e1b8-4a45-8b87-e112d97cc428" data-name="Layer 1">
      <path d="M0,29.67a2.54,2.54,0,0,1,2.37-2.78,2.55,2.55,0,0,1,2.41,2.78c0,1.73-1,2.83-2.41,2.83S0,31.4,0,29.67ZM4.61,1.44c0,.77-.09,1.87-.3,3.84-.55,5.47-.85,11-1.23,17.19a1.21,1.21,0,0,1-1.48,0C1.23,16.32,1,10.75.38,5.28c-.17-2-.3-3.07-.3-3.84C.08.43.8,0,2.33,0S4.61.43,4.61,1.44Z" style="fill: #3a4185"/>
    </g>
  </g>
</svg>
