<svg xmlns="http://www.w3.org/2000/svg" viewBox="0 0 95.92 62.1">
  <title>Сумма</title>
  <g id="a7ab361c-2f6c-466e-87ae-3d632f3ebb81" data-name="Layer 2">
    <g id="2c9c5d1a-6fd4-4ade-918b-a3003d2df75d" data-name="Layer 1">
      <g>
        <path d="M15.27,36.53a1.45,1.45,0,0,0-2.91,0c0,4.05,3.59,7.41,8.25,8v6.21a1.45,1.45,0,1,0,2.91,0V44.53c4.66-.59,8.24-3.95,8.24-8s-3.58-7.4-8.24-8V18.2c3,.51,5.33,2.58,5.33,5.06a1.45,1.45,0,1,0,2.91,0c0-4-3.58-7.4-8.24-8V9.06a1.45,1.45,0,0,0-2.91,0v6.21c-4.66.59-8.25,3.94-8.25,8s3.59,7.4,8.25,8V41.6C17.57,41.09,15.27,39,15.27,36.53Zm13.58,0c0,2.48-2.29,4.55-5.33,5.06V31.48C26.57,32,28.86,34.06,28.86,36.53ZM15.27,23.27c0-2.48,2.29-4.56,5.35-5.06V28.32C17.57,27.82,15.27,25.74,15.27,23.27Z" style="fill: #3a4185"/>
        <path d="M94.47,0h-93A1.45,1.45,0,0,0,0,1.45V60.64A1.45,1.45,0,0,0,1.45,62.1h93a1.45,1.45,0,0,0,1.45-1.45V1.45A1.45,1.45,0,0,0,94.47,0ZM93,59.19H2.91V2.91H93V59.19Z" style="fill: #3a4185"/>
        <path d="M43.73,19.82H86a1.45,1.45,0,1,0,0-2.91H43.73a1.45,1.45,0,0,0,0,2.91Z" style="fill: #3a4185"/>
        <path d="M43.73,31.35H86a1.45,1.45,0,1,0,0-2.91H43.73a1.45,1.45,0,0,0,0,2.91Z" style="fill: #3a4185"/>
        <path d="M43.73,45.17H86a1.45,1.45,0,1,0,0-2.91H43.73a1.45,1.45,0,0,0,0,2.91Z" style="fill: #3a4185"/>
      </g>
    </g>
  </g>
</svg>
