<svg xmlns="http://www.w3.org/2000/svg" viewBox="0 0 60.18 57.88">
  <title>Телефон</title>
  <g id="d1c56270-1dd8-43db-9d89-4269d2880a46" data-name="Layer 2">
    <g id="68e553d7-96f2-43e8-bf7f-a1936377821f" data-name="Layer 1">
      <g id="b4447913-f95b-49c6-ad36-f552fdff7a4b" data-name="&lt;Group&gt;">
        <path d="M4.7,6.22a9.45,9.45,0,0,0-.72.9c-2,1.8-3.63,5.75-2.69,10.62a48.61,48.61,0,0,0,43.2,39.08c.46,0,.92.06,1.37.06a12.7,12.7,0,0,0,6.62-1.74,9.73,9.73,0,0,0,2.36-1.9l1.84-2A9.7,9.7,0,0,0,56,37.52l-3.1-2.8a9.68,9.68,0,0,0-13.68.69l-1.84,2a9.62,9.62,0,0,0-1.71,2.66,34.3,34.3,0,0,1-17-15.6A9.69,9.69,0,0,0,22.16,22L24,20A9.69,9.69,0,0,0,23.31,6.3l-3.1-2.8a9.69,9.69,0,0,0-13.68.68Zm3.68-.36a7.2,7.2,0,0,1,10.17-.51l3.1,2.8a7.2,7.2,0,0,1,.51,10.17l-1.84,2h0a7.19,7.19,0,0,1-3.26,2.06l-.56.17a1.24,1.24,0,0,0-.76,1.75l.26.52A36.79,36.79,0,0,0,35.46,42.7l.48.19a1.24,1.24,0,0,0,1.64-.76l.16-.49a7.16,7.16,0,0,1,1.48-2.53l1.84-2a7.19,7.19,0,0,1,10.16-.51l3.1,2.8a7.21,7.21,0,0,1,.51,10.16l-1.84,2A7.32,7.32,0,0,1,51.21,53a10.64,10.64,0,0,1-6.5,1.34,46.11,46.11,0,0,1-41-37.07c-.81-4.19.71-7.28,1.94-8.32l.11-.11.09-.09L6,8.61a7,7,0,0,1,.58-.73Z" style="fill: #3a4185"/>
        <path d="M45.86,57.88c-.48,0-1,0-1.46-.07A49.61,49.61,0,0,1,.3,17.93C-.77,12.4,1.19,8.32,3.23,6.45A10.49,10.49,0,0,1,4,5.55l1.83-2a10.69,10.69,0,0,1,15.1-.76L24,5.56a10.69,10.69,0,0,1,.76,15.1l-1.83,2A10.79,10.79,0,0,1,20,24.95,33.45,33.45,0,0,0,35.19,38.79a10.66,10.66,0,0,1,1.45-2l1.84-2A10.68,10.68,0,0,1,53.56,34l3.1,2.8a10.7,10.7,0,0,1,.76,15.09l-1.84,2A10.71,10.71,0,0,1,53,56,13.61,13.61,0,0,1,45.86,57.88ZM13.72,2A8.7,8.7,0,0,0,7.27,4.86l-1.84,2a8.3,8.3,0,0,0-.64.8l-.15.17c-1.8,1.6-3.24,5.21-2.37,9.68A47.6,47.6,0,0,0,44.58,55.82,12.07,12.07,0,0,0,52,54.29a8.76,8.76,0,0,0,2.14-1.72l1.84-2a8.7,8.7,0,0,0-.62-12.27l-3.1-2.8A8.68,8.68,0,0,0,40,36.08l-1.84,2a8.66,8.66,0,0,0-1.53,2.38l-.39.91L35.28,41A35.43,35.43,0,0,1,17.74,25l-.52-1,1-.42a8.75,8.75,0,0,0,3.17-2.22l1.83-2A8.69,8.69,0,0,0,22.64,7l-3.1-2.8A8.67,8.67,0,0,0,13.72,2ZM45.87,55.39q-.62,0-1.25-.06A47.11,47.11,0,0,1,2.75,17.46C1.91,13.14,3.34,9.62,5,8.19l.11-.12a8.32,8.32,0,0,1,.68-.85l1.83-2a8.2,8.2,0,0,1,11.58-.58l3.1,2.8A8.2,8.2,0,0,1,22.89,19l-1.84,2a8.18,8.18,0,0,1-3.71,2.35l-.56.17a.24.24,0,0,0-.15.14.25.25,0,0,0,0,.21l.26.52A35.8,35.8,0,0,0,35.82,41.77l.48.19a.24.24,0,0,0,.32-.15l.16-.49a8.15,8.15,0,0,1,1.69-2.88l1.84-2a8.19,8.19,0,0,1,11.58-.58l3.1,2.8a8.21,8.21,0,0,1,.58,11.58l-1.84,2a8.36,8.36,0,0,1-2,1.63A11.2,11.2,0,0,1,45.87,55.39ZM9.12,6.53l-1.83,2a6.07,6.07,0,0,0-.5.62,2.14,2.14,0,0,1-.18.23l-.09.1-.21.2c-1,.86-2.33,3.62-1.6,7.37A45.1,45.1,0,0,0,44.8,53.34a9.66,9.66,0,0,0,5.88-1.19,6.31,6.31,0,0,0,1.57-1.25l1.84-2a6.2,6.2,0,0,0-.44-8.75l-3.1-2.8a6.19,6.19,0,0,0-8.75.44l-1.84,2A6.17,6.17,0,0,0,38.69,42l-.16.49a2.24,2.24,0,0,1-3,1.38l-.48-.19a37.8,37.8,0,0,1-20-18.34l-.26-.52a2.25,2.25,0,0,1,1.37-3.15l.56-.17a6.17,6.17,0,0,0,2.8-1.78l1.84-2A6.2,6.2,0,0,0,21,8.89l-3.1-2.8a6.2,6.2,0,0,0-8.75.44Z" style="fill: #3a4185"/>
      </g>
    </g>
  </g>
</svg>
