<svg xmlns="http://www.w3.org/2000/svg" viewBox="0 0 26.04 16.95">
  <title>Уведомления</title>
  <g id="c46b8c15-6c94-4d5f-88dd-d8a4b36b75ea" data-name="Layer 2">
    <g id="e4020434-41fa-4853-9f34-7a2af26c220c" data-name="Layer 1">
      <path d="M26,16.64a.45.45,0,0,0,0-.14V.45a.45.45,0,0,0,0-.14v0a.45.45,0,0,0-.08-.14h0a.45.45,0,0,0-.13-.1h0l-.15,0H.42A.45.45,0,0,0,.27,0h0a.45.45,0,0,0-.14.1h0A.45.45,0,0,0,0,.3v0A.45.45,0,0,0,0,.45v16a.45.45,0,0,0,0,.14v0a.45.45,0,0,0,.08.14h0l0,0,0,0,.06,0h0a.45.45,0,0,0,.18,0H25.58a.45.45,0,0,0,.18,0h0l.05,0,0,0,0,0h0a.45.45,0,0,0,.08-.14ZM.91,1.48l7.63,7-7.63,7ZM16.53,8.1l-.09.07,0,0L13,11.32,1.62.91H24.42Zm-7.33,1,3.51,3.21a.45.45,0,0,0,.61,0L16.79,9.1,24.41,16H1.61Zm8.26-.57,7.67-7v14Z" style="fill: #fff"/>
    </g>
  </g>
</svg>
