<svg xmlns="http://www.w3.org/2000/svg" viewBox="0 0 898 290.78"><defs><style>.cls-1{fill:#9398c5}.cls-2,.cls-3{fill:#3a4185}.cls-3,.cls-4{fill-rule:evenodd}.cls-4{fill:#fa3c49}</style></defs><title>beautyhub_logo+e</title><g id="logo_1" data-name="logo 1"><path class="cls-1" d="M286.68 677.64l3.45 3.5a14.66 14.66 0 0 1-10.41 4.3c-8.14 0-14.8-5.9-14.8-15.18 0-8.89 6.16-15.18 14.8-15.18a14.49 14.49 0 0 1 10.41 4.35l-3.45 3.45a9.85 9.85 0 0 0-7-2.86c-6.07 0-9.78 4.3-9.78 10.24 0 6.32 4.34 10.25 9.78 10.25a9.86 9.86 0 0 0 7-2.87zm28.6 2.45V685h-15.85v-29.5h4.93v24.59zm9.62-24.59h4.94V685h-4.94zm36.65 22.14l3.46 3.5a14.7 14.7 0 0 1-10.42 4.3c-8.13 0-14.8-5.9-14.8-15.18 0-8.89 6.16-15.18 14.8-15.18a14.53 14.53 0 0 1 10.41 4.35l-3.46 3.45a9.85 9.85 0 0 0-7-2.86c-6.07 0-9.78 4.3-9.78 10.24 0 6.32 4.34 10.25 9.78 10.25a9.86 9.86 0 0 0 7.01-2.87zm23.75-7.13L397.57 685h-6.45L382 673.8l-2.79 3.12V685h-4.91v-29.5h4.93v14.89l12.1-14.89h6.16zM439.34 660h-6.2v25h-4.89v-25h-6.2v-4.5h17.29zm30.54-4.5V685h-4.94v-12.29h-12.27V685h-4.93v-29.5h4.93v12.23h12.27V655.5zm15.87 4.94v7.37H498v4.9h-12.25v7.38h14.75V685h-19.69v-29.5h19.69v4.94zm62.92 16.1c0 8.1-8.26 8.48-10.24 8.48h-9.83v-29.47h9.83s9.82-.26 9.82 8.26a6.27 6.27 0 0 1-4.93 6.49 6.27 6.27 0 0 1 5.35 6.24zm-15.18-8.73h4.94s4.89 0 4.89-3.66c0-4-4.89-3.71-4.89-3.71h-4.94zm10.25 8.61c0-4-5.31-3.67-5.31-3.67h-4.94v7.38h4.94c2.06 0 5.31-.51 5.31-3.71zm19.45-15.98v7.37h12.27v4.9h-12.27v7.38H578V685h-19.74v-29.5H578v4.94zm37.71 21.16h-10.37l-1.27 3.4H584l11.76-30.36L607.52 685h-5.31zm-8.77-4.26h7.17l-3.59-10.24zm22.95-1.77V655.5H620v20.07c.26 3.42 3 4.94 6.11 4.94s6.16-1.65 6.16-4.94V655.5h4.93v20.07c0 6.28-4.8 9.87-11.09 9.87-6.05 0-11.03-3.8-11.03-9.87zM662.91 660h-6.2v25h-4.89v-25h-6.2v-4.5h17.29zm32.09-4.5l-11.09 15.56v14H679v-14l-11.1-15.56h6l7.55 10.55L689 655.5z" transform="translate(-55.9 -394.65)"/><path class="cls-2" d="M660.21 486.69a1.16 1.16 0 0 0-1.28 1v34.66h-33.59V487.7a1.16 1.16 0 0 0-1.28-1h-14.49a1.16 1.16 0 0 0-1.28 1v86.85a1.16 1.16 0 0 0 1.28 1h14.49a1.16 1.16 0 0 0 1.28-1v-36.06h33.59v36.06a1.16 1.16 0 0 0 1.28 1h14.62a1.12 1.12 0 0 0 1.15-1V487.7a1.12 1.12 0 0 0-1.15-1zm202.62 25.14c0-25.91-30.26-25.14-30.26-25.14h-29a1.12 1.12 0 0 0-1.15 1v86.85a1.12 1.12 0 0 0 1.15 1h29c6.16 0 31.41-1.14 31.41-25.77 0 0 .51-14.6-13.46-19.43 6.66-2.65 12.31-8.34 12.31-18.51zm-43.46-8.89h13.2s13.21-.77 13.21 9.77c0 9.65-10.77 10.54-13.21 10.54h-13.2zm13.2 56.37h-13.2v-20.57h13.2c2.82 0 14.49 0 14.49 10.54 0 8.38-8.85 10.03-14.49 10.03z" transform="translate(-55.9 -394.65)"/><path class="cls-3" d="M755.91 499.39v-11.63a1.17 1.17 0 0 1 1.28-1h14.62a1.13 1.13 0 0 1 1.15 1v11.63zm-50.64 0v-11.63a1.17 1.17 0 0 1 1.28-1H721a1.18 1.18 0 0 1 1.28 1v11.63z" transform="translate(-55.9 -394.65)"/><path class="cls-4" d="M722.32 503.73v43.75c1 8.89 8.46 13.59 16.79 13.59s16.8-4.44 16.8-13.46v-43.88H773v43.88c0 18.92-14.62 29.84-33.85 29.84-18.59 0-33.84-11.43-33.84-29.84v-43.88z" transform="translate(-55.9 -394.65)"/><path class="cls-2" d="M162.4 511.28c0-25.9-30.25-25.14-30.25-25.14h-29a1.12 1.12 0 0 0-1.15 1V574a1.12 1.12 0 0 0 1.15 1h29c6.15 0 31.41-1.15 31.41-25.78 0 0 .51-14.6-13.46-19.42 6.66-2.65 12.3-8.36 12.3-18.52zm-43.46-8.89h13.21s13.2-.76 13.2 9.78c0 9.65-10.77 10.54-13.2 10.54h-13.21zm13.21 56.38h-13.21V538.2h13.21c2.82 0 14.49 0 14.49 10.54 0 8.38-8.85 10.03-14.49 10.03zM248 502.27a1.18 1.18 0 0 0 1.29-1v-14.1a1.18 1.18 0 0 0-1.29-1h-58.08a1.12 1.12 0 0 0-1.15 1V574a1.12 1.12 0 0 0 1.15 1H248a1.18 1.18 0 0 0 1.29-1v-14a1.18 1.18 0 0 0-1.29-1h-42.3v-20.29h35a1 1 0 0 0 1.15-1v-13.86a1 1 0 0 0-1.15-1h-35v-20.58zm72.75 72.11a1.16 1.16 0 0 0 1 .64h15.9c.89 0 1.41-.64 1-1.4l-35-89.39a1.32 1.32 0 0 0-2.3 0l-35 89.39c-.38.76.13 1.4 1.16 1.4h15.77a1.21 1.21 0 0 0 1.15-.64l3.46-9.39H317zm-18.2-51l9 26.67h-18.11zm84.87 52.91c19.23 0 33.85-10.92 33.85-29.84v-58.53a1.13 1.13 0 0 0-1.16-1H405.5a1.17 1.17 0 0 0-1.28 1v58.53c0 9-8.34 13.46-16.8 13.46s-15.77-4.7-16.79-13.58v-58.41a1.18 1.18 0 0 0-1.29-1h-14.48a1.18 1.18 0 0 0-1.29 1v58.53c0 18.41 15.26 29.84 33.85 29.84zm107.26-88.37a1.17 1.17 0 0 0-1.28-1h-50.9a1.17 1.17 0 0 0-1.28 1v13.2c0 .51.51.89 1.28.89h17.05v72a1.05 1.05 0 0 0 1.16 1h14.48a1.05 1.05 0 0 0 1.16-1V502h17c.77 0 1.28-.38 1.28-.89zm74.85-1.78c-.13 0-.77.13-.9.38l-21.15 30.09-21.29-30.09c-.12-.25-.77-.38-.89-.38h-17.82c-1.16 0-1.67.89-1 1.65 10.77 15 21.8 30.73 32.44 45.71V574a1.17 1.17 0 0 0 1.28 1h14.49a1.18 1.18 0 0 0 1.28-1v-40.5l32.43-45.71c.64-.76.13-1.65-1-1.65z" transform="translate(-55.9 -394.65)"/><path class="cls-2" d="M908.12 621.62H55.9V440.36h852.22zm-843.78-8.44h835.35V448.8H64.34z" transform="translate(-55.9 -394.65)"/></g><g id="Слой_5" data-name="Слой 5"><path class="cls-2" d="M931 405.76a11.79 11.79 0 0 0-11.59 9.7h23.18a11.78 11.78 0 0 0-11.59-9.7z" transform="translate(-55.9 -394.65)"/><path class="cls-2" d="M931 394.65a22.88 22.88 0 1 0 22.87 22.88A22.88 22.88 0 0 0 931 394.65zm0 38.79a15.79 15.79 0 0 1-12.52-6.1l3.25-2.55a11.78 11.78 0 0 0 20.86-5.19h-27.5v-2.07A15.91 15.91 0 1 1 931 433.44z" transform="translate(-55.9 -394.65)"/></g></svg>