<svg xmlns="http://www.w3.org/2000/svg" viewBox="0 0 103 76.52"><title>Готово</title><g data-name="Layer 2"><g fill="none" stroke="#3a4185" stroke-miterlimit="10" data-name="Layer 1"><path d="M37 75a1.45 1.45 0 0 1-1-.43l-34-34a1.46 1.46 0 0 1 2-2.08l33 33L99 2a1.46 1.46 0 0 1 2.17 1.94l-63 70.61A1.46 1.46 0 0 1 37 75z"/><path d="M37 76a2.47 2.47 0 0 1-1.74-.72l-34-34a2.46 2.46 0 0 1 0-3.47 2.51 2.51 0 0 1 3.47 0L36.9 70 98.21 1.32a2.46 2.46 0 0 1 3.67 3.27l-63 70.61a2.47 2.47 0 0 1-1.69.82zm0-1zM3 39.06a.46.46 0 0 0-.32.78l34 34A.46.46 0 0 0 37 74a.46.46 0 0 0 .33-.15l63-70.61a.46.46 0 1 0-.68-.61L37 72.9 3.28 39.19a.45.45 0 0 0-.28-.13z"/></g></g></svg>