<svg xmlns="http://www.w3.org/2000/svg" viewBox="0 0 6.91 3.99"><title>Кнопка вып. актив</title><g data-name="Layer 2"><g fill="#3a4185" data-name="Layer 1"><path d="M.37.56L.7.37l2.7 2.74L6.22.5l.31.2-3.15 2.92L.37.56z"/><path d="M.56.88L.89.7.43.64l2.7 2.74a.38.38 0 0 0 .53 0L6.48.77 6 .83l.32.2-.05-.59-3.15 2.91h.53L.64.3C.3 0-.23.48.11.83l3 3.06a.38.38 0 0 0 .53 0L6.8 1a.38.38 0 0 0-.08-.62l-.31-.2A.38.38 0 0 0 6 .24L3.13 2.85h.53L1 .11A.38.38 0 0 0 .51 0L.18.24a.38.38 0 0 0 .38.64z"/></g></g></svg>