<svg xmlns="http://www.w3.org/2000/svg" viewBox="0 0 83.46 81.1"><title>Подарок</title><g data-name="Layer 2"><g data-name="Layer 1"><path d="M81 12.26H64.49c2.13-3.23 2.46-6.66.66-9a6 6 0 0 0-4.1-2.2c-2.91-.37-6.44.8-9.43 3.12a15.84 15.84 0 0 0-4 4.41 15.86 15.86 0 0 0-4-4.4c-5-3.87-10.94-4.27-13.55-.92-1.8 2.33-1.47 5.76.66 9H14.35a1.5 1.5 0 0 0-1.5 1.5v15.77a1.5 1.5 0 0 0 1.5 1.5h3.46v39.41a1.5 1.5 0 0 0 1.5 1.5H76a1.5 1.5 0 0 0 1.5-1.5V31H81a1.5 1.5 0 0 0 1.5-1.5V13.76a1.5 1.5 0 0 0-1.5-1.5zm-27.55-5.7C55.8 4.74 58.58 3.78 60.67 4a3 3 0 0 1 2.1 1.06c1.22 1.58.29 4.59-2.12 7.16H49.34a11.23 11.23 0 0 1 4.11-5.66zM32.53 5.1c1.47-1.92 5.86-1.23 9.34 1.46a11.21 11.21 0 0 1 4.13 5.7H34.66c-2.42-2.57-3.34-5.58-2.13-7.16zM15.85 15.26h30.31V28H15.85zm5 15.78h25.31V69H20.81zM74.51 69H49.16V31h25.35zm5-40.91H49.16V15.26h30.3z" fill="#fff" stroke="#fff" stroke-miterlimit="10" stroke-width="2"/><circle cx="16.97" cy="64.13" r="16.97" fill="#3a4185"/><path d="M21.94 59.88a.94.94 0 0 0 1.87 0c0-2.57-2.57-4.69-5.9-5v-4.09a.94.94 0 0 0-1.87 0v4.06c-3.33.34-5.9 2.46-5.9 5s2.57 4.69 5.9 5v6.82c-2.29-.3-4-1.69-4-3.35a.94.94 0 0 0-1.87 0c0 2.57 2.57 4.69 5.9 5v4.06a.94.94 0 0 0 1.87 0v-3.97c3.33-.34 5.9-2.46 5.9-5s-2.57-4.69-5.9-5v-6.88c2.26.3 4 1.69 4 3.35zm-9.94 0c0-1.66 1.74-3 4-3.35v6.7c-2.26-.3-4-1.69-4-3.35zm9.94 8.5c0 1.66-1.74 3.05-4 3.35V65c2.26.33 4 1.72 4 3.38z" fill="#fff" stroke="#fff" stroke-miterlimit="10" stroke-width="3"/></g></g></svg>