<svg xmlns="http://www.w3.org/2000/svg" viewBox="0 0 48 48"><title>Гуг</title><g data-name="Layer 2"><g data-name="Layer 1"><circle cx="24" cy="24" r="24" fill="#95a2ad"/><path d="M19.94 28.14a3.11 3.11 0 0 1-1.51-3c0-1.17.2-2.28 1.4-2.94-.21-.1-.39-.18-.56-.28a6.09 6.09 0 0 1-2.45-2.85A7 7 0 0 1 22.4 9.06a8 8 0 0 1 4.6.79 1.69 1.69 0 0 0 .81.16 14 14 0 0 0 4-.89l.25-.12h.09v4.1c0 .25-.07.37-.31.43-.46.11-.92.25-1.38.37a.33.33 0 0 0 0 .1 7.13 7.13 0 0 1-5.76 9.06 1.68 1.68 0 0 0-1.64 1.82 1.86 1.86 0 0 0 .76 1.32 4 4 0 0 0 2.21.89 10.87 10.87 0 0 1 3.45 1.08A4.45 4.45 0 0 1 32 32.82a7.45 7.45 0 0 1-.65 2.73 5.36 5.36 0 0 1-3.55 2.9 13.32 13.32 0 0 1-8.29-.23 4.93 4.93 0 0 1-3.17-2.8 5.12 5.12 0 0 1 .78-5.58 6 6 0 0 1 2.58-1.6zm6.3-11.89c0-.35-.05-.65-.1-.94A2.54 2.54 0 0 0 23.72 13 2.41 2.41 0 0 0 21 15a5.16 5.16 0 0 0 0 2.29 2.14 2.14 0 0 0 1.69 1.79 4.51 4.51 0 0 0 1.45.07 2.13 2.13 0 0 0 2-1.82c.02-.39.05-.76.09-1.08zM24 35.14a5.15 5.15 0 0 0 2.44-.42 2 2 0 0 0 1.1-2A1.74 1.74 0 0 0 26.31 31a7.54 7.54 0 0 0-1.81-.39 5.93 5.93 0 0 0-2.78.31 2 2 0 0 0-1.34 1.93 1.92 1.92 0 0 0 1.35 1.88 6.29 6.29 0 0 0 2.27.41z" fill="#fff" fill-rule="evenodd"/></g></g></svg>