<svg xmlns="http://www.w3.org/2000/svg" viewBox="0 0 21.9 23.6"><title>Пользователь</title><g data-name="Layer 2"><g fill="#3a4185" data-name="Layer 1"><path d="M19.35 16.8l-4.2-3.15-2.15-.38a7.24 7.24 0 0 1-4.27 0l-3 .34-4.2 4.2-1 4.2v1h21V20z"/><path d="M14.28 12.71a7.26 7.26 0 0 1-1.42.59A10 10 0 0 1 21 22.67H.94a10 10 0 0 1 7.9-9.33 7.25 7.25 0 0 1-1.43-.56A11 11 0 0 0 0 23.14a.46.46 0 0 0 .46.46h21a.46.46 0 0 0 .46-.46 11 11 0 0 0-7.64-10.43z"/><path d="M10.77 0a6.31 6.31 0 1 0 6.31 6.31A6.31 6.31 0 0 0 10.77 0zm0 11.68a5.38 5.38 0 1 1 5.38-5.38 5.38 5.38 0 0 1-5.38 5.38z"/><circle cx="10.95" cy="6.62" r="6"/></g></g></svg>