<svg xmlns="http://www.w3.org/2000/svg" viewBox="0 0 76.25 93.61"><title>Посетитель активный</title><g data-name="Layer 2"><g fill="#3a4185" data-name="Layer 1"><path d="M33.25 67.5H3.54a27 27 0 0 1 26.85-25.56A26.51 26.51 0 0 1 42 44.6a1.5 1.5 0 1 0 1.3-2.7 29.48 29.48 0 0 0-12.94-3A30 30 0 0 0 .5 69 1.5 1.5 0 0 0 2 70.5h31.25a1.5 1.5 0 0 0 0-3z"/><path d="M33.25 71H2a2 2 0 0 1-2-2 30.51 30.51 0 0 1 30.39-30.56 30 30 0 0 1 13.16 3A2 2 0 0 1 41.8 45a26 26 0 0 0-11.42-2.61A26.45 26.45 0 0 0 4.08 67h29.17a2 2 0 0 1 0 4zm-2.86-31.56A29.51 29.51 0 0 0 1 69a1 1 0 0 0 1 1h31.25a1 1 0 0 0 0-2H3v-.53a27.46 27.46 0 0 1 27.35-26 27 27 0 0 1 11.85 2.71 1 1 0 1 0 .87-1.8 29 29 0 0 0-12.68-2.94zm.61-3.92A17.51 17.51 0 1 0 13.48 18 17.53 17.53 0 0 0 31 35.52zm0-32A14.51 14.51 0 1 1 16.48 18 14.53 14.53 0 0 1 31 3.5z"/><path d="M31 36a18 18 0 1 1 18-18 18 18 0 0 1-18 18zm0-35a17 17 0 1 0 17 17A17 17 0 0 0 31 1zm0 32a15 15 0 1 1 15-15 15 15 0 0 1-15 15zm0-29a14 14 0 1 0 14 14A14 14 0 0 0 31 4zm43.25 45.5h-34a1.5 1.5 0 0 0-1.5 1.5v32a1.5 1.5 0 0 0 1.5 1.5h10.5v7.11a1.5 1.5 0 0 0 1 1.4 1.5 1.5 0 0 0 1.65-.39l9.53-8.07h11.36a1.5 1.5 0 0 0 1.5-1.5V51a1.5 1.5 0 0 0-1.54-1.5zm-1.5 32H62.51a2 2 0 0 0-1.34.5l-7.43 5.72V83a1.5 1.5 0 0 0-1.5-1.5H41.75v-29h31v29z"/><path d="M52.25 93.61a2 2 0 0 1-2-2V85h-10a2 2 0 0 1-2-2V51a2 2 0 0 1 2-2h34a2 2 0 0 1 2 2v32a2 2 0 0 1-2 2H63.07l-9.39 8a2 2 0 0 1-1.43.61zM40.25 50a1 1 0 0 0-1 1v32a1 1 0 0 0 1 1h11v7.61a1 1 0 0 0 1.74.67L62.7 84h11.54a1 1 0 0 0 1-1V51a1 1 0 0 0-1-1zm13 38.74V83a1 1 0 0 0-1-1h-11V52h32v30H62.51a1.46 1.46 0 0 0-1 .39zm-11-7.74h10a2 2 0 0 1 2 2v3.7l6.62-5.1a2.43 2.43 0 0 1 1.64-.6h9.74V53h-30z"/><path d="M53.75 63a1.5 1.5 0 0 0 1.5-1.5 2.36 2.36 0 1 1 2.47 2.36h-.51A1.34 1.34 0 0 0 55.76 65v4a1.5 1.5 0 0 0 3 0v-2.29a5.36 5.36 0 1 0-6.5-5.24A1.5 1.5 0 0 0 53.75 63z"/><path d="M57.25 71a2 2 0 0 1-2-2v-4a1.83 1.83 0 0 1 2-1.63h.49a1.86 1.86 0 1 0-2-1.86 2 2 0 0 1-4 0 5.86 5.86 0 1 1 7.5 5.63V69a2 2 0 0 1-1.99 2zm.36-12.39a2.86 2.86 0 0 1 .13 5.73h-.53c-.15 0-.88 0-1 .69v4a1 1 0 0 0 2 0v-2.72l.39-.09a4.86 4.86 0 1 0-5.89-4.75 1 1 0 0 0 2 0 2.87 2.87 0 0 1 2.9-2.86z"/><circle cx="57.25" cy="75" r="2.5"/><path d="M57.25 78a3 3 0 1 1 3-3 3 3 0 0 1-3 3zm0-5a2 2 0 1 0 2 2 2 2 0 0 0-2-2z"/><circle cx="31.42" cy="17.76" r="15.5"/><path d="M31.42 33.76a16 16 0 1 1 16-16 16 16 0 0 1-16 16zm0-31a15 15 0 1 0 15 15 15 15 0 0 0-15-15zm9.17 66.5l-33.5.5-6.17-2.5 7-18 12-8s7-2 8-2h8l4 2 14 10-13-1-2 7z"/><path d="M7 70.26L.28 67.54l7.23-18.61 12.27-8.15c.72-.21 7.1-2 8.14-2H36l4.11 2.05L55.67 51.9l-14.38-1.11-1.86 6.51 1.73 12.46h-.57l-33.49.5zM1.57 67l5.62 2.28L40 68.77l-1.6-11.54 2.14-7.49 11.62.89-12.54-9-3.83-1.91h-7.87c-.67 0-5.1 1.19-7.79 2l-11.8 7.87z"/><path d="M51.57 51.26h3.82a29.81 29.81 0 0 0-24.1-12.32 29.48 29.48 0 0 0-12.94 3 1.5 1.5 0 1 0 1.3 2.7 26.76 26.76 0 0 1 31.92 6.66z"/><path d="M56.38 51.76h-5l-.15-.17a26.32 26.32 0 0 0-19.91-9.15A26 26 0 0 0 19.87 45a2 2 0 1 1-1.74-3.6 30 30 0 0 1 13.16-3A30.47 30.47 0 0 1 55.8 51zm-4.58-1h2.59a29.46 29.46 0 0 0-23.1-11.32 29 29 0 0 0-12.72 2.91 1 1 0 1 0 .87 1.8 27 27 0 0 1 11.85-2.71 27.31 27.31 0 0 1 20.51 9.32zM40.92 67.5H28.43a1.5 1.5 0 0 0 0 3h12.5z"/><path d="M41.42 71h-13a2 2 0 0 1 0-4h13zm-13-3a1 1 0 0 0 0 2h12v-2z"/></g></g></svg>