<svg xmlns="http://www.w3.org/2000/svg" viewBox="0 0 19.95 17.59"><title>Баланс_1</title><g data-name="Layer 2"><g fill="#3a4185" data-name="Layer 1"><path d="M0 7.65v2.63a.36.36 0 0 1 0 .06.36.36 0 0 1 0 .06c0 1.07 2.52 2.26 6.13 2.26a12.31 12.31 0 0 0 3.79-.55A12.55 12.55 0 0 1 9.17 9a15.14 15.14 0 0 1-3 .29C3.39 9.26 1.12 8.62 0 7.65z"/><path d="M10.4 5.6l1.87-.83V3.66c-1.11 1-3.39 1.6-6.13 1.6s-5-.64-6.13-1.6v2.47a.36.36 0 0 1 0 .06.36.36 0 0 1 0 .06C0 7.32 2.53 8.51 6.14 8.51a14.2 14.2 0 0 0 3-.31c0-1.28.4-2.21 1.15-2.55z"/><path d="M15.6 17.53h.1l2.27-1a5 5 0 0 1-1.31-.94 13 13 0 0 1-2.66-4 13 13 0 0 1-1.2-4.65 5 5 0 0 1 .2-1.67l-2.41 1.06c-1 .44-1 3.22.44 6.52s3.59 5.15 4.57 4.68z"/><path d="M19.24 15.9c.49-.22.74-1 .7-2.15a12.28 12.28 0 0 0-1.14-4.37 12.29 12.29 0 0 0-2.5-3.77 2.88 2.88 0 0 0-1.74-1 .79.79 0 0 0-.33.07c-.49.22-.75 1-.71 2.15a12.3 12.3 0 0 0 1.14 4.38A12.29 12.29 0 0 0 17.17 15c.82.79 1.58 1.13 2.07.91zm-7.58-.37a15.59 15.59 0 0 1-1.31-2.38l-.15-.35a13 13 0 0 1-4.06.6c-2.75 0-5-.63-6.13-1.6v2.67a.36.36 0 0 1 0 .06.36.36 0 0 1 0 .06c0 1.07 2.52 2.26 6.13 2.26a10 10 0 0 0 5.52-1.32zm.61-13.27C12.27 1.19 9.75 0 6.14 0S0 1.19 0 2.26s2.53 2.27 6.14 2.27 6.12-1.19 6.13-2.26z"/></g></g></svg>