<svg xmlns="http://www.w3.org/2000/svg" viewBox="0 0 68 83"><title>Журнал</title><g data-name="Layer 2"><path d="M62 0H13a6 6 0 0 0-6 6v9H1.5a1.5 1.5 0 0 0 0 3H7v9H1.5a1.5 1.5 0 0 0 0 3H7v9H1.5a1.5 1.5 0 0 0 0 3H7v10H1.5a1.5 1.5 0 0 0 0 3H7v10H1.5a1.5 1.5 0 0 0 0 3H7v9a6 6 0 0 0 6 6h49a6 6 0 0 0 6-6V6a6 6 0 0 0-6-6zM10 77v-9h4.5a1.5 1.5 0 0 0 0-3H10V55h4.5a1.5 1.5 0 0 0 0-3H10V42h4.5a1.5 1.5 0 0 0 0-3H10v-9h4.5a1.5 1.5 0 0 0 0-3H10v-9h4.5a1.5 1.5 0 0 0 0-3H10V6a3 3 0 0 1 3-3h38v77H13a3 3 0 0 1-3-3zm55 0a3 3 0 0 1-3 3h-8V3h8a3 3 0 0 1 3 3z" fill="#3a4185" data-name="Layer 1"/></g></svg>