<svg xmlns="http://www.w3.org/2000/svg" viewBox="0 0 93.73 89.74"><title>Избранное</title><g data-name="Layer 2"><g fill="#fff" data-name="Layer 1"><path d="M93 34a4.4 4.4 0 0 0-3.57-3l-26.67-3.86L50.84 3a4.4 4.4 0 0 0-4-2.47A4.4 4.4 0 0 0 42.9 3L31 27.14 4.3 31a4.43 4.43 0 0 0-2.45 7.55l19.3 18.81-4.58 26.7a4.42 4.42 0 0 0 6.36 4.7l24.49-12.4 23.3 12.25a4.43 4.43 0 0 0 6.43-4.67l-4.56-26.56 19.3-18.81A4.4 4.4 0 0 0 93 34zm-3.2 2.42L69.37 56.33l4.82 28.12A1.43 1.43 0 0 1 72.12 86L47.45 73 21.58 86.08a1.43 1.43 0 0 1-2.05-1.51l4.84-28.23L3.94 36.42A1.43 1.43 0 0 1 4.73 34L33 29.88 45.59 4.3a1.4 1.4 0 0 1 1.28-.8 1.4 1.4 0 0 1 1.28.8l12.62 25.58L89 34a1.43 1.43 0 0 1 .79 2.43z"/><path d="M20.93 89.74A4.94 4.94 0 0 1 16.07 84l4.53-26.45L1.49 38.92a4.93 4.93 0 0 1 2.73-8.41l26.41-3.84L42.45 2.75a4.93 4.93 0 0 1 8.84 0L63.1 26.68l26.41 3.84a4.9 4.9 0 0 1 4 3.35 4.9 4.9 0 0 1-1.25 5.05L73.13 57.55l4.51 26.31a4.93 4.93 0 0 1-7.15 5.19L47.42 76.92 23.16 89.2a5 5 0 0 1-2.23.54zM46.87 1a3.91 3.91 0 0 0-3.52 2.19l-12 24.4-26.98 3.92a3.93 3.93 0 0 0-2.18 6.7l19.49 19-4.62 26.93A3.91 3.91 0 0 0 18.6 88a4 4 0 0 0 4.11.35L47.42 75.8 71 88.17A3.93 3.93 0 0 0 76.65 84l-4.6-26.8 19.49-19a3.91 3.91 0 0 0 1-4 3.9 3.9 0 0 0-3.17-2.67l-26.94-3.94-12-24.4A3.9 3.9 0 0 0 46.87 1zM20.92 86.74A1.94 1.94 0 0 1 19 84.48l4.8-28-20.21-19.7a1.93 1.93 0 0 1 1.07-3.29l28-4.07L45.14 4.08a1.93 1.93 0 0 1 3.46 0l12.5 25.34 28 4.07a1.93 1.93 0 0 1 1.07 3.29L69.9 56.51l4.78 27.86a1.93 1.93 0 0 1-2.8 2L47.44 73.55l-25.64 13a2 2 0 0 1-.88.19zM46.87 4a.9.9 0 0 0-.83.52L33.29 30.34 4.8 34.48a.93.93 0 0 0-.51 1.58l20.61 20.1L20 84.65a.93.93 0 0 0 1.33 1l26.1-13.21 24.9 13.09a.93.93 0 0 0 1.35-1l-4.85-28.37 20.62-20.1a.93.93 0 0 0-.51-1.58l-28.5-4.14L47.7 4.52a.9.9 0 0 0-.83-.52z"/><path d="M1.65 33.09l29.5-4 15-27L62.4 29.84l27.75 3.25 1 2-19 21 3 29-2 3-25-13-25 11h-3l-1-2 3-23 2-5-5-4-15-12-2.5-7z"/><path d="M73.31 88.74l-25.18-13.1-24.88 10.95h-3.41l-1.21-2.41 3.05-23.28 1.86-4.66L3.72 40.39 1 32.68l29.86-4 15.28-27.6L62.7 29.37l27.77 3.25 1.27 2.55-19.07 21.09 3 29zm-25.15-14.2L73 87.44 74.63 85l-3-29 .15-.17L90.55 35l-.73-1.45-27.73-3.24L46.16 3.1l-14.7 26.45-29.14 4 2.25 6.29 20.18 16.09-2.11 5.29L19.66 84l.79 1.59H23z"/></g></g></svg>