<svg xmlns="http://www.w3.org/2000/svg" viewBox="0 0 131.33 131.19"><title>Интернет</title><g data-name="Layer 2"><g data-name="Layer 1"><g data-name="&lt;Group&gt;" fill="#3a4185"><path d="M62.18 130.68h6.26A65.15 65.15 0 0 0 68.43.52h-6.26a65.16 65.16 0 0 0 0 130.13zm-39.35-22.95a72.82 72.82 0 0 1 13.33-7.66 78 78 0 0 0 18.55 24.64 60.29 60.29 0 0 1-31.88-16.98zm40.32 17.39a74.49 74.49 0 0 1-22.3-26.93 75.26 75.26 0 0 1 22.3-4.43zm0-36.4a80.31 80.31 0 0 0-24.34 4.85 74.28 74.28 0 0 1-5.2-23.3h29.53zm0-23.5h-29.7a75.11 75.11 0 0 1 4.06-24.1 79.15 79.15 0 0 0 25.64 5.43zm12.62 59.65a77.86 77.86 0 0 0 19.18-25.7 73 73 0 0 1 14.34 7.78 60.1 60.1 0 0 1-33.53 17.92zm36.85-21.73a77.73 77.73 0 0 0-15.73-8.61 79.55 79.55 0 0 0 5.2-24.29h23.51a59.56 59.56 0 0 1-12.99 32.89zm1.88-72.57a59.53 59.53 0 0 1 11.3 34.62h-23.57a80.23 80.23 0 0 0-4.12-25.07 79.45 79.45 0 0 0 16.38-9.56zm-3.11-4a74.44 74.44 0 0 1-15 8.79 78.81 78.81 0 0 0-20.61-29 59.83 59.83 0 0 1 35.6 20.24zm-43.2-20a73.94 73.94 0 0 1 23.5 30.63 74.08 74.08 0 0 1-23.5 4.33zm0 40A79.15 79.15 0 0 0 93.41 42a75.2 75.2 0 0 1 3.78 23.2h-29zm0 23.63h28.85a74.47 74.47 0 0 1-4.89 22.54 80.39 80.39 0 0 0-24-4.12zm0 23.44a75.35 75.35 0 0 1 22 3.73 74.36 74.36 0 0 1-22 27.17zm-5-87.59v35.47a74.1 74.1 0 0 1-23.83-5.1A74.08 74.08 0 0 1 63.14 6.1zm-8.43.4a78.93 78.93 0 0 0-20 27.91 74.18 74.18 0 0 1-14-8.67A60 60 0 0 1 54.71 6.5zM17.53 29.64a79.26 79.26 0 0 0 15.33 9.48 80.15 80.15 0 0 0-4.45 26.11H5.54a59.46 59.46 0 0 1 11.99-35.59zM5.73 70.28h22.83a79.34 79.34 0 0 0 5.57 25.19 78 78 0 0 0-14.7 8.53 59.46 59.46 0 0 1-13.7-33.72z"/><path d="M68.46 131.19h-6.31A65.66 65.66 0 0 1 62 0h6.42a65.64 65.64 0 0 1 0 131.17zm-6.27-1h6.25A64.65 64.65 0 0 0 68.41 1H62.2a64.66 64.66 0 0 0 0 129.14zm1.45-4.06l-.8-.6A75.17 75.17 0 0 1 40.39 98.4l-.24-.5.52-.19a75.81 75.81 0 0 1 22.45-4.46h.52zm-22.1-27.66a74.15 74.15 0 0 0 21.1 25.64V94.28a74.82 74.82 0 0 0-21.1 4.19zm32.58 27.18l1.31-1.16A77.44 77.44 0 0 0 94.48 99l.2-.43.44.18a73.59 73.59 0 0 1 14.44 7.83l.48.33-.4.42a61 61 0 0 1-33.79 18.07zm21.07-25.84a78.3 78.3 0 0 1-17.79 24.24 60 60 0 0 0 31.11-17 72.58 72.58 0 0 0-13.32-7.24zm-27.51 25.8V93.18h.51a75.91 75.91 0 0 1 22.14 3.76l.54.18-.24.51A75.07 75.07 0 0 1 68.49 125zm1-31.41v29.37a74.07 74.07 0 0 0 20.8-25.85 74.88 74.88 0 0 0-20.8-3.52zm-12.3 31.33l-1.76-.33a61.19 61.19 0 0 1-32.15-17.12l-.41-.41.47-.34A73.39 73.39 0 0 1 36 99.61l.44-.2.21.44A77.52 77.52 0 0 0 55 124.34zM23.59 107.8A60.27 60.27 0 0 0 53 123.86a78.41 78.41 0 0 1-17.12-23.14 72.39 72.39 0 0 0-12.29 7.08zm-4.25-3.14l-.3-.36a60 60 0 0 1-13.81-34v-.54H29v.47a78.91 78.91 0 0 0 5.54 25l.18.45-.44.2a77.51 77.51 0 0 0-14.61 8.46zM6.27 70.78a59 59 0 0 0 13.25 32.52 78.5 78.5 0 0 1 14-8.1 79.87 79.87 0 0 1-5.4-24.43zm106.43 33l-.38-.27A77.33 77.33 0 0 0 96.69 95l-.46-.19.18-.46a79.1 79.1 0 0 0 5.17-24.14v-.47h24.53v.54A60.16 60.16 0 0 1 113 103.45zm-15.18-9.54a78.36 78.36 0 0 1 15 8.21 59.15 59.15 0 0 0 12.55-31.73h-22.52a80.1 80.1 0 0 1-5.03 23.52zm-59 0l-.18-.45a74.82 74.82 0 0 1-5.23-23.49v-.53h30.57V89.2h-.48A79.87 79.87 0 0 0 39 94zm-4.38-23.47a73.82 73.82 0 0 0 5 22.16 80.83 80.83 0 0 1 23.55-4.69V70.75zm58.3 22.63l-.44-.15a80 80 0 0 0-23.82-4.09h-.49V69.75h29.88v.53A75 75 0 0 1 92.61 93zm-23.76-5.23a80.92 80.92 0 0 1 23.17 4 74 74 0 0 0 4.65-21.43H68.68zM5 65.74v-.5a60 60 0 0 1 12.09-35.9l.31-.41.4.32a78.85 78.85 0 0 0 15.23 9.42l.41.19-.15.43a79.72 79.72 0 0 0-4.42 26v.5zm12.62-35.39A59 59 0 0 0 6 64.74h21.91a80.68 80.68 0 0 1 4.33-25.35 79.83 79.83 0 0 1-14.62-9.04zm15.32 35.38v-.5A75.65 75.65 0 0 1 37 41l.17-.49.49.19a78.7 78.7 0 0 0 25.48 5.4h.48v19.61zm4.87-23.95a74.63 74.63 0 0 0-3.86 22.95h28.69V47a79.69 79.69 0 0 1-24.83-5.22zm29.87 23.93V46.13h.49a78.7 78.7 0 0 0 25.07-4.62l.48-.17.16.49a75.73 75.73 0 0 1 3.8 23.37v.5zm1-18.6v17.6h28a74.72 74.72 0 0 0-3.58-22.09 79.71 79.71 0 0 1-24.42 4.49zm33.06 18.59v-.5a79.74 79.74 0 0 0-4.1-24.92l-.15-.44.42-.18a79 79 0 0 0 16.27-9.5l.41-.31.3.42a60.11 60.11 0 0 1 11.39 34.91v.5zm-3-25.3a80.73 80.73 0 0 1 4 24.3h22.55a59.1 59.1 0 0 0-10.9-33.41 80 80 0 0 1-15.66 9.11zm-31 1.69V5.61l.8.62a74.61 74.61 0 0 1 23.6 30.83l.2.48-.49.18a74.63 74.63 0 0 1-23.66 4.35zm1-34.44v33.41A73.61 73.61 0 0 0 91 37 73.58 73.58 0 0 0 68.68 7.65zM63.64 42h-.52a74.65 74.65 0 0 1-24-5.13l-.48-.19.2-.47a74.72 74.72 0 0 1 24-30.53l.8-.6zM40 36.14A73.65 73.65 0 0 0 62.64 41V7.11A73.71 73.71 0 0 0 40 36.14zm56.12-.09l-.19-.48A78.61 78.61 0 0 0 75.42 6.72l-1.3-1.16 1.71.29a60.66 60.66 0 0 1 35.92 20.42l.35.4-.42.32a75 75 0 0 1-15.11 8.85zM77.39 7.16a79.61 79.61 0 0 1 19.24 27.56 74 74 0 0 0 14-8.2A59.68 59.68 0 0 0 77.39 7.16zM34.95 35.09l-.47-.22a74.8 74.8 0 0 1-14.07-8.73l-.41-.33.35-.4A60.88 60.88 0 0 1 54.62 6l1.75-.32L55 6.87A78.72 78.72 0 0 0 35.15 34.6zm-13.5-9.41a73.78 73.78 0 0 0 13 8.06 79.71 79.71 0 0 1 18.6-26.39 59.94 59.94 0 0 0-31.61 18.33z"/></g></g></g></svg>