<svg xmlns="http://www.w3.org/2000/svg" viewBox="0 0 69 70"><title>Копировать</title><g data-name="Layer 2"><g fill="#3a4185" data-name="Layer 1"><path d="M67.5 33a1.5 1.5 0 0 0-1.5 1.5V52H17V3h17.5a1.5 1.5 0 1 0 0-3h-19A1.5 1.5 0 0 0 14 1.5V15H1.5A1.5 1.5 0 0 0 0 16.5v52A1.5 1.5 0 0 0 1.5 70h52a1.5 1.5 0 0 0 1.5-1.5V55h12.5a1.5 1.5 0 0 0 1.5-1.5v-19a1.5 1.5 0 0 0-1.5-1.5zM52 67H3V18h11v35.5a1.5 1.5 0 0 0 1.5 1.5H52z"/><path d="M1.5 37A1.5 1.5 0 0 0 3 35.5V18h49v49H34.5a1.5 1.5 0 0 0 0 3h19a1.5 1.5 0 0 0 1.5-1.5V55h12.5a1.5 1.5 0 0 0 1.5-1.5v-52A1.5 1.5 0 0 0 67.5 0h-52A1.5 1.5 0 0 0 14 1.5V15H1.5A1.5 1.5 0 0 0 0 16.5v19A1.5 1.5 0 0 0 1.5 37zM17 3h49v49H55V16.5a1.5 1.5 0 0 0-1.5-1.5H17z"/></g></g></svg>