<svg xmlns="http://www.w3.org/2000/svg" viewBox="0 0 91.02 76.69"><title>Купить билет</title><g data-name="Layer 2"><g fill="#3a4185" data-name="Layer 1"><path d="M51.26 35.52a1.49 1.49 0 0 0 0-.33v-.09a1.35 1.35 0 0 0-.37-.67l-.06-.06a1.59 1.59 0 0 0-.27-.2 1.46 1.46 0 0 0-.35-.13L50 34a1.5 1.5 0 0 0-.32 0l-26.75 1.8a1.5 1.5 0 0 0-.86 2.65l8.87 7.38 1.49 11.44a1.5 1.5 0 0 0 1.11 1.26 1.55 1.55 0 0 0 .37 0 1.5 1.5 0 0 0 1.22-.53L51 36.35a1.45 1.45 0 0 0 .15-.29v-.08a1.56 1.56 0 0 0 .08-.36.31.31 0 0 0 .03-.1zm-8.17 1.9l-10.56 5.82-5.66-4.7zm-8.16 15.74L34 45.87l10.57-5.82z"/><path d="M91 40.3a1.49 1.49 0 0 0-.16-.84l-2.78-5.37a1.5 1.5 0 0 0-2-.64 1.64 1.64 0 0 1-1.51-2.92 1.5 1.5 0 0 0 .81-1.45 1.48 1.48 0 0 0 0-.27v-.12a1.47 1.47 0 0 0-.06-.16l-2.9-5.4a1.5 1.5 0 0 0-2-.64 1.65 1.65 0 1 1-1.52-2.92 1.5 1.5 0 0 0 .64-2l-.07-.11v-.1L76.61 12a1.5 1.5 0 0 0-2-.64 1.64 1.64 0 0 1-2.21-.7 1.65 1.65 0 0 1 .7-2.22 1.5 1.5 0 0 0 .64-2v-.06L70.88.89a1.49 1.49 0 0 0-.68-.66 1.5 1.5 0 0 0-1.48-.06L2.45 34.56a4.55 4.55 0 0 0-1.94 6.13l3.85 7.45a1.5 1.5 0 0 0 1.33.81 10.36 10.36 0 0 1 8.44 16.34 1.5 1.5 0 0 0-.13 1.55l3.82 7.39a4.54 4.54 0 0 0 6.14 2l66.26-34.44A1.5 1.5 0 0 0 91 40.3zM22.58 73.51a1.55 1.55 0 0 1-2.09-.67l-3.42-6.61A13.36 13.36 0 0 0 6.62 46l-3.45-6.69a1.55 1.55 0 0 1 .66-2.08l65-33.74 1.65 3.18a4.64 4.64 0 0 0 3.35 7.84 4.58 4.58 0 0 0 .68-.06l1.75 3.39a4.63 4.63 0 0 0 3.36 7.84 4.72 4.72 0 0 0 .68-.06l1.7 3.16a4.63 4.63 0 0 0 1.94 7.63 4.67 4.67 0 0 0 1.41.22 4.58 4.58 0 0 0 .68-.06l1.65 3.18z"/></g></g></svg>