<svg xmlns="http://www.w3.org/2000/svg" viewBox="0 0 77.45 73.78"><title>Мероприятие</title><g data-name="Layer 2"><g fill="#3a4185" data-name="Layer 1"><path d="M75.95 8.34H60.1V1.5a1.5 1.5 0 0 0-3 0v6.84H18.64V1.5a1.5 1.5 0 0 0-3 0v6.84H1.5A1.5 1.5 0 0 0 0 9.84v62.44a1.5 1.5 0 0 0 1.5 1.5h74.45a1.5 1.5 0 0 0 1.5-1.5V9.84a1.5 1.5 0 0 0-1.5-1.5zm-1.5 62.44H3V11.34h12.64v4.54a1.5 1.5 0 0 0 3 0v-4.54H57.1v4.54a1.5 1.5 0 1 0 3 0v-4.54h14.35z"/><path d="M59.62 51.24l-5.06-5.06a1.5 1.5 0 1 0-2.12 2.12l5.06 5.06-5.06 5.06a1.5 1.5 0 0 0 2.12 2.12l5.06-5.06 5.06 5.06a1.5 1.5 0 0 0 2.12-2.12l-5.06-5.06 5.06-5.06a1.5 1.5 0 0 0-2.12-2.12zM22.67 25.47h-9.25a1.5 1.5 0 0 0-1.5 1.5v9.25a1.5 1.5 0 0 0 1.5 1.5h9.25a1.5 1.5 0 0 0 1.5-1.5V27a1.5 1.5 0 0 0-1.5-1.53zm-1.5 9.25h-6.25v-6.25h6.25zm22.57-9.25H34.5A1.5 1.5 0 0 0 33 27v9.25a1.5 1.5 0 0 0 1.5 1.5h9.25a1.5 1.5 0 0 0 1.5-1.5V27a1.5 1.5 0 0 0-1.51-1.53zm-1.5 9.25H36v-6.25h6.25zM22.67 46.74h-9.25a1.5 1.5 0 0 0-1.5 1.5v9.25a1.5 1.5 0 0 0 1.5 1.5h9.25a1.5 1.5 0 0 0 1.5-1.5v-9.25a1.5 1.5 0 0 0-1.5-1.5zM21.17 56h-6.25v-6.26h6.25zm22.57-9.26H34.5a1.5 1.5 0 0 0-1.5 1.5v9.25A1.5 1.5 0 0 0 34.5 59h9.25a1.5 1.5 0 0 0 1.5-1.5v-9.26a1.5 1.5 0 0 0-1.51-1.5zM42.24 56H36v-6.26h6.25zm12.37-30.53a1.5 1.5 0 0 0-1.5 1.5v9.25a1.5 1.5 0 0 0 1.5 1.5h9.25a1.5 1.5 0 0 0 1.5-1.5V27a1.5 1.5 0 0 0-1.5-1.5zm7.75 9.25h-6.25v-6.25h6.25z"/></g></g></svg>