<svg xmlns="http://www.w3.org/2000/svg" viewBox="0 0 65.98 75.41"><title>Новость</title><g data-name="Layer 2"><g fill="#fff" stroke="#fff" stroke-miterlimit="10" stroke-width="2" data-name="Layer 1"><path d="M64.9 73.37a1.48 1.48 0 0 0 .08-.46V34a1.62 1.62 0 0 0 0-.18v-.11a1.47 1.47 0 0 0 0-.14v-.13l-.06-.1a1.5 1.5 0 0 0-.09-.16l-6.27-8.8v-6.29a1.49 1.49 0 0 0-.39-1L58 17 44 1.5a1.49 1.49 0 0 0-1.14-.5H9.06a1.5 1.5 0 0 0-1.5 1.5v21.82l-6.28 8.79a1.55 1.55 0 0 0-.1.17v.47A1.51 1.51 0 0 0 1 34v39a1.48 1.48 0 0 0 .08.47v.06a1.5 1.5 0 0 0 .28.46l.16.14.08.06.2.11h.06a1.5 1.5 0 0 0 .59.12h61a1.48 1.48 0 0 0 .59-.12h.08l.18-.1.09-.07.14-.13a1.5 1.5 0 0 0 .28-.46zM4 37.38l17.51 16L4 69.49zm19.74 18L32 62.93a1.5 1.5 0 0 0 2 0l8.14-7.43 17.47 15.91H6.34zm20.63-1.94L62 37.38v32.14zm0-47.06l9.2 10.18h-9.2zm17.12 27.39l-3.06 2.79v-7.08zM41.36 4v14.09a1.5 1.5 0 0 0 1.5 1.5h12.57V39.3l-14.22 13a1.52 1.52 0 0 0-.21.15v.08l-8 7.27-22.44-20.49V4zM7.56 36.57l-3.06-2.8 3.06-4.29z"/><path d="M24.59 36.83l-1.19 7a2.33 2.33 0 0 0 2.29 2.73 2.36 2.36 0 0 0 1.05-.25l6.4-3.31 6.07 3.19a2.32 2.32 0 0 0 3.38-2.45l-1.19-6.91 5-4.91a2.32 2.32 0 0 0-1.28-4l-7-1-3.11-6.3A2.31 2.31 0 0 0 33 19.34a2.29 2.29 0 0 0-2.07 1.31l-3.11 6.3-7 1a2.32 2.32 0 0 0-1.29 4zm4.42-7a1.5 1.5 0 0 0 1.13-.83L33 23.2l2.85 5.8a1.5 1.5 0 0 0 1.15.8l6.38.93-4.62 4.51a1.5 1.5 0 0 0-.43 1.33l1.09 6.36L33.86 40a1.49 1.49 0 0 0-1.38 0l-5.9 3 1.1-6.42a1.5 1.5 0 0 0-.43-1.33l-4.62-4.51z"/></g></g></svg>