<svg xmlns="http://www.w3.org/2000/svg" viewBox="0 0 10.26 7.81"><title>ะะบ</title><g data-name="Layer 2"><g fill="#fff" data-name="Layer 1"><path d="M3.79 7.34a.18.18 0 0 1-.13-.05L.52 4.15a.18.18 0 0 1 0-.26.18.18 0 0 1 .26 0l3 3L9.47.53a.18.18 0 0 1 .27.24L3.93 7.28a.18.18 0 0 1-.13.06zM.65 3.93L.59 4a.09.09 0 0 0 0 .12l3.14 3.11h.06a.09.09 0 0 0 .07 0L9.67.71a.09.09 0 1 0-.13-.12L3.79 7 .71 4z"/><path d="M3.8 7.72a.56.56 0 0 1-.39-.16L.25 4.41A.56.56 0 0 1 1 3.63l2.77 2.72L9.19.28A.56.56 0 0 1 10 1L4.21 7.53a.56.56 0 0 1-.4.19z"/><path d="M3.79 7.44a.27.27 0 0 1-.19-.08L.45 4.21a.27.27 0 0 1 0-.39.29.29 0 0 1 .39 0l2.94 2.95L9.4.47a.27.27 0 0 1 .41.36L4 7.35a.27.27 0 0 1-.19.09zM.65 3.84a.18.18 0 0 0-.13.31l3.14 3.14a.18.18 0 0 0 .13.05.18.18 0 0 0 .12-.06L9.74.77a.18.18 0 1 0-.27-.24L3.78 6.9l-3-3a.18.18 0 0 0-.13-.06zM3.84 7.3zm0 0a.09.09 0 0 1-.06 0L.59 4.08a.09.09 0 0 1 .06-.15L.71 4l3.08 3L9.54.59a.09.09 0 0 1 .06 0h.06a.09.09 0 0 1 0 .12l-5.8 6.51a.09.09 0 0 1-.07.03z"/><path d="M3.79 7.81a.65.65 0 0 1-.46-.19L.19 4.48a.65.65 0 0 1 0-.92.66.66 0 0 1 .92 0l2.65 2.66 5.36-6a.65.65 0 1 1 1 .86L4.27 7.59l-.06.06a.65.65 0 0 1-.37.14z"/></g></g></svg>