<svg xmlns="http://www.w3.org/2000/svg" viewBox="0 0 69 70"><title>Перейти на страницу</title><g data-name="Layer 2"><g fill="#3a4185" data-name="Layer 1"><path d="M67.5 33a1.5 1.5 0 0 0-1.5 1.5V52H17V3h17.5a1.5 1.5 0 1 0 0-3h-19A1.5 1.5 0 0 0 14 1.5V15H1.5A1.5 1.5 0 0 0 0 16.5v52A1.5 1.5 0 0 0 1.5 70h52a1.5 1.5 0 0 0 1.5-1.5V55h12.5a1.5 1.5 0 0 0 1.5-1.5v-19a1.5 1.5 0 0 0-1.5-1.5zM52 67H3V18h11v35.5a1.5 1.5 0 0 0 1.5 1.5H52z"/><path d="M67.5 0h-19a1.5 1.5 0 1 0 0 3h15.38L39.44 27.44a1.5 1.5 0 0 0 2.12 2.12L66 5.12V20.5a1.5 1.5 0 0 0 3 0v-19A1.5 1.5 0 0 0 67.5 0z"/></g></g></svg>