<svg xmlns="http://www.w3.org/2000/svg" viewBox="0 0 12.2 21.15"><title>Подсказка</title><g data-name="Layer 2"><path d="M6 19.31a.67.67 0 0 0 0 1.34.67.67 0 0 0 0-1.34zM6.15.5H6.1A5.58 5.58 0 0 0 .5 6a.34.34 0 0 0 .33.34.34.34 0 0 0 .34-.34A4.91 4.91 0 0 1 6.1 1.17 4.91 4.91 0 0 1 11 6.11a5.07 5.07 0 0 1-2.86 4.47 4.19 4.19 0 0 0-2.59 3.9v2.7a.34.34 0 0 0 .33.34.34.34 0 0 0 .34-.33v-2.7a3.56 3.56 0 0 1 2.21-3.3 5.75 5.75 0 0 0 3.24-5.07A5.58 5.58 0 0 0 6.15.5z" fill="#fff" stroke="#fff" stroke-miterlimit="10" data-name="Layer 1"/></g></svg>