<svg xmlns="http://www.w3.org/2000/svg" viewBox="0 0 47.5 67.65"><title>Редактировать</title><g data-name="Layer 2"><path d="M47.47 6.16a1.5 1.5 0 0 0-.64-1L39.3.25A1.51 1.51 0 0 0 38.17 0a1.5 1.5 0 0 0-.95.64l-5.51 8.41a1.52 1.52 0 0 0-.14.27L2.4 53.58a1.52 1.52 0 0 0-.15.3 1.48 1.48 0 0 0-.34.72L0 65.9a1.5 1.5 0 0 0 2.34 1.48l9.39-6.56a1.5 1.5 0 0 0 .27-.22 1.48 1.48 0 0 0 .43-.42l29.18-44.27a1.54 1.54 0 0 0 .14-.28l5.5-8.34a1.5 1.5 0 0 0 .22-1.13zM4.58 56.81l3.94 2.6-5 3.46zm6.17.47L5.73 54l27.53-41.8 5 3.31zM39.9 13l-5-3.31 4-6.1 5 3.31z" fill="#3a4185" data-name="Layer 1"/></g></svg>