<svg xmlns="http://www.w3.org/2000/svg" viewBox="0 0 88.21 58.13"><title>Сообщение</title><g data-name="Layer 2"><g fill="#3a4185" data-name="Layer 1"><path d="M87.13 56.08a1.48 1.48 0 0 0 .08-.46V2.5a1.47 1.47 0 0 0-.08-.5v-.06a1.49 1.49 0 0 0-.28-.46 1.5 1.5 0 0 0-.44-.32 1.48 1.48 0 0 0-.6-.16H2.4a1.5 1.5 0 0 0-.52.13 1.48 1.48 0 0 0-.45.33A1.5 1.5 0 0 0 1.1 2v.06a1.47 1.47 0 0 0-.1.44v53.13a1.48 1.48 0 0 0 .08.47v.06a1.5 1.5 0 0 0 .28.46l.16.14.07.06.21.12h.05a1.5 1.5 0 0 0 .59.12H85.7a1.48 1.48 0 0 0 .59-.12h.08l.18-.1.09-.07.14-.13a1.5 1.5 0 0 0 .28-.46zM4 5.9L29.25 29 4 52.21zm51.75 21.93a1.43 1.43 0 0 0-.3.22s0 .08-.07.12L44.1 38.47 6.37 4h75.47zM31.47 31l11.62 10.61a1.5 1.5 0 0 0 2 0l11.5-10.49 25.24 23H6.35zm27.34-1.9l25.4-23.2v46.33z"/><path d="M85.7 58.13H2.5a2.48 2.48 0 0 1-1-.2l-.15-.08a1.73 1.73 0 0 1-.29-.17l-.13-.1-.19-.16-.21-.23a2.47 2.47 0 0 1-.38-.68v-.11a2.42 2.42 0 0 1-.15-.77V2.5a2.44 2.44 0 0 1 .13-.77l.05-.15A2.32 2.32 0 0 1 .53 1V.92L.74.73a2.42 2.42 0 0 1 .63-.46l.14-.06A2.43 2.43 0 0 1 2.34 0h83.57a2.42 2.42 0 0 1 .82.21l.12.06a2.56 2.56 0 0 1 .57.4l.27.3a2.46 2.46 0 0 1 .36.64v.11a2.41 2.41 0 0 1 .13.76v53.15a2.47 2.47 0 0 1-.12.76l-.06.17a2.33 2.33 0 0 1-.34.59l-.21.25-.2.17-.14.11a2.54 2.54 0 0 1-.3.17l-.13.07a2.47 2.47 0 0 1-.98.21zM2.27 56.07a.56.56 0 0 0 .23.05h83.2a.49.49 0 0 0 .19 0l.19-.14a.5.5 0 0 0 .09-.15l1 .29-1-.31a.55.55 0 0 0 0-.15V2.5a.5.5 0 0 0 0-.15.48.48 0 0 0-.1-.17.5.5 0 0 0-.13-.09H2.47L2.34 2h-.11l-.08.07a.48.48 0 0 0-.15.25.61.61 0 0 0 0 .18v53.13a.54.54 0 0 0 0 .15.48.48 0 0 0 .1.17l.14.12zM85.6 2zm-1.19 53.13H3.78l27.69-25.49 12.3 11.23a.45.45 0 0 0 .67 0l12.15-11.1zm-75.51-2h70.35L56.59 32.48l-10.8 9.87a2.56 2.56 0 0 1-3.37 0l-10.94-10zm76.3 1.37L57.33 29.09 85.21 3.63zM60.3 29.09L83.21 50V8.17zM3 54.49V3.63L30.73 29zM5 8.17v41.76L27.77 29zm39.1 31.65L3.79 3h80.63L56.21 28.72v.06l-.12.13zM8.94 5L44.1 37.11l10.48-9.57a1.18 1.18 0 0 1 .13-.16 1.94 1.94 0 0 1 .43-.34L79.26 5z"/></g></g></svg>