<svg xmlns="http://www.w3.org/2000/svg" viewBox="0 0 124.23 123.92"><title>Ссылка</title><g data-name="Layer 2"><g data-name="Layer 1" fill="#3a4185"><path d="M53.78 32.24l24.9-24.59h-6.36l44.26 44.83v-6.36L91.67 70.71c-4.13 4.08 2.24 10.44 6.36 6.36l24.91-24.59a4.57 4.57 0 0 0 0-6.36L78.68 1.29a4.57 4.57 0 0 0-6.36 0L47.41 25.88c-4.13 4.08 2.24 10.44 6.36 6.36zM26.2 46.85L1.29 71.43a4.57 4.57 0 0 0 0 6.36l44.26 44.83a4.57 4.57 0 0 0 6.36 0L76.82 98c4.13-4.08-2.24-10.44-6.36-6.36l-24.91 24.63h6.36L7.65 71.43v6.37l24.91-24.59c4.13-4.08-2.24-10.44-6.36-6.36z"/><path d="M76.38 40.86l-36.3 35.83c-4.13 4.08 2.24 10.44 6.36 6.36l36.3-35.83c4.13-4.08-2.24-10.44-6.36-6.36z"/></g></g></svg>