<svg xmlns="http://www.w3.org/2000/svg" viewBox="0 0 95.92 62.1"><title>Сумма</title><g data-name="Layer 2"><g fill="#3a4185" data-name="Layer 1"><path d="M15.27 36.53a1.45 1.45 0 0 0-2.91 0c0 4.05 3.59 7.41 8.25 8v6.21a1.45 1.45 0 1 0 2.91 0v-6.21c4.66-.59 8.24-3.95 8.24-8s-3.58-7.4-8.24-8V18.2c3 .51 5.33 2.58 5.33 5.06a1.45 1.45 0 1 0 2.91 0c0-4-3.58-7.4-8.24-8v-6.2a1.45 1.45 0 0 0-2.91 0v6.21c-4.66.59-8.25 3.94-8.25 8s3.59 7.4 8.25 8V41.6c-3.04-.51-5.34-2.6-5.34-5.07zm13.58 0c0 2.48-2.29 4.55-5.33 5.06V31.48c3.05.52 5.34 2.58 5.34 5.05zM15.27 23.27c0-2.48 2.29-4.56 5.35-5.06v10.11c-3.05-.5-5.35-2.58-5.35-5.05z"/><path d="M94.47 0h-93A1.45 1.45 0 0 0 0 1.45v59.19a1.45 1.45 0 0 0 1.45 1.46h93a1.45 1.45 0 0 0 1.45-1.45V1.45A1.45 1.45 0 0 0 94.47 0zM93 59.19H2.91V2.91H93v56.28z"/><path d="M43.73 19.82H86a1.45 1.45 0 1 0 0-2.91H43.73a1.45 1.45 0 0 0 0 2.91zm0 11.53H86a1.45 1.45 0 1 0 0-2.91H43.73a1.45 1.45 0 0 0 0 2.91zm0 13.82H86a1.45 1.45 0 1 0 0-2.91H43.73a1.45 1.45 0 0 0 0 2.91z"/></g></g></svg>