<svg xmlns="http://www.w3.org/2000/svg" viewBox="0 0 26.04 16.95"><title>Уведомления</title><g data-name="Layer 2"><path d="M26 16.64a.45.45 0 0 0 0-.14V.45a.45.45 0 0 0 0-.14.45.45 0 0 0-.08-.14.45.45 0 0 0-.13-.1H.42A.45.45 0 0 0 .27 0a.45.45 0 0 0-.14.1.45.45 0 0 0-.13.2.45.45 0 0 0 0 .15v16a.45.45 0 0 0 0 .14.45.45 0 0 0 .08.14h.06a.45.45 0 0 0 .18 0h25.26a.45.45 0 0 0 .18 0h.05a.45.45 0 0 0 .08-.14zM.91 1.48l7.63 7-7.63 7zM16.53 8.1l-.09.07L13 11.32 1.62.91h22.8zm-7.33 1l3.51 3.21a.45.45 0 0 0 .61 0l3.47-3.21 7.62 6.9H1.61zm8.26-.57l7.67-7v14z" fill="#fff" data-name="Layer 1"/></g></svg>